<svg width="331" height="178" viewBox="0 0 331 178" fill="none" xmlns="http://www.w3.org/2000/svg">
<rect width="331" height="178" fill="url(#paint0_linear_1_9)"/>
<path d="M63.4219 53.7715C63.4219 53.7715 63.4251 53.7715 63.4316 53.7715C62.0905 56.4798 61.3581 57.9609 61.2344 58.2148C59.9388 60.832 59.2552 62.2122 59.1836 62.3555L57.6211 65.5098C57.5755 65.4512 57.3574 65.1126 56.9668 64.4941C56.3223 63.3613 56 62.1829 56 60.959V60.8711C56 59.6992 56.2962 58.5697 56.8887 57.4824C57.6764 56.0762 58.819 55.0443 60.3164 54.3867C60.5573 54.2891 60.8275 54.1947 61.127 54.1035C61.3483 54.0384 61.625 53.9766 61.957 53.918C62.1849 53.8789 62.6732 53.8301 63.4219 53.7715ZM64.8965 54.0352C65.6126 54.263 66.179 54.5007 66.5957 54.748C66.8691 54.8978 67.1719 55.0996 67.5039 55.3535C67.6732 55.4837 67.9206 55.7083 68.2461 56.0273C68.5846 56.4049 68.8353 56.7174 68.998 56.9648C69.2585 57.3685 69.4505 57.7201 69.5742 58.0195C69.6719 58.2344 69.763 58.4655 69.8477 58.7129C69.2747 58.9017 68.9362 59.0124 68.832 59.0449C68.7214 58.7324 68.5944 58.4297 68.4512 58.1367C68.2689 57.7917 68.0182 57.4206 67.6992 57.0234C67.4128 56.7044 67.1654 56.4635 66.957 56.3008C66.638 56.0404 66.3678 55.8483 66.1465 55.7246C65.873 55.5684 65.6354 55.4512 65.4336 55.373C65.388 55.4642 64.8411 56.5775 63.793 58.7129C62.3997 61.5254 61.6836 62.9707 61.6445 63.0488L60.1211 66.1445C61.0586 66.6654 62.0514 66.9258 63.0996 66.9258C64.3236 66.9258 65.4629 66.571 66.5176 65.8613C66.7324 65.7181 66.9993 65.4967 67.3184 65.1973C67.6048 64.9043 67.8099 64.6699 67.9336 64.4941C68.0898 64.2858 68.2363 64.0612 68.373 63.8203C68.5163 63.5599 68.64 63.2897 68.7441 63.0098C68.7441 63.0033 68.7474 63 68.7539 63C68.832 63.026 69.1641 63.1497 69.75 63.3711C69.6393 63.6771 69.5091 63.9701 69.3594 64.25C69.1706 64.6146 68.9102 65.0052 68.5781 65.4219C68.4349 65.5846 68.2559 65.7767 68.041 65.998C67.6764 66.3301 67.3932 66.5645 67.1914 66.7012C66.9245 66.8835 66.6706 67.0365 66.4297 67.1602C65.3685 67.7201 64.2715 68 63.1387 68H63.0508C61.918 68 60.821 67.7233 59.7598 67.1699C59.5124 67.0397 59.1706 66.8249 58.7344 66.5254C59.3138 65.3535 60.0788 63.804 61.0293 61.877C62.4225 59.0514 63.1387 57.6029 63.1777 57.5312C64.252 55.3503 64.8249 54.1849 64.8965 54.0352ZM57.0742 60.9102C57.0742 61.7044 57.2305 62.4824 57.543 63.2441C57.6211 63.1009 57.875 62.5866 58.3047 61.7012C58.3893 61.5449 59.0762 60.1615 60.3652 57.5508C61.1335 55.9948 61.5371 55.1745 61.5762 55.0898C61.2246 55.1875 60.9154 55.2949 60.6484 55.4121C59.2617 56.0632 58.2493 57.0723 57.6113 58.4395C57.2533 59.2402 57.0742 60.0638 57.0742 60.9102ZM71.7324 53.8398H72.7871C72.7936 53.8398 72.7969 53.8431 72.7969 53.8496V57.9121C72.7969 57.9121 74.0632 58.485 76.5957 59.6309L77.6016 60.0898C80.5182 58.7682 82.0156 58.0911 82.0938 58.0586L82.4062 57.9121V53.8496C82.4062 53.8431 82.4095 53.8398 82.416 53.8398H83.4707C83.4772 53.8398 83.4805 53.8431 83.4805 53.8496V58.5957C83.4544 58.6152 82.9206 58.8594 81.8789 59.3281L77.8848 61.1348C77.7155 61.2129 77.6211 61.2552 77.6016 61.2617C74.7435 59.9661 73.2917 59.3086 73.2461 59.2891L71.7227 58.6055V53.8496C71.7227 53.8431 71.7259 53.8398 71.7324 53.8398ZM71.7324 59.9727C74.597 61.1445 76.0423 61.737 76.0684 61.75C76.1009 61.763 76.612 61.9714 77.6016 62.375C80.5573 61.1641 82.097 60.5358 82.2207 60.4902C82.2272 60.4837 82.6471 60.3112 83.4805 59.9727V59.9824V67.9902C83.4805 67.9967 83.4772 68 83.4707 68H82.416C82.4095 68 82.4062 67.9967 82.4062 67.9902V61.5645C79.5286 62.7363 78.0866 63.3255 78.0801 63.332C78.028 63.3516 77.8685 63.4167 77.6016 63.5273C74.9258 62.4401 73.526 61.8672 73.4023 61.8086C73.3958 61.8086 73.194 61.7272 72.7969 61.5645V67.9902C72.7969 67.9967 72.7936 68 72.7871 68H71.7324C71.7259 68 71.7227 67.9967 71.7227 67.9902V59.9824C71.7227 59.9759 71.7259 59.9727 71.7324 59.9727ZM93.1875 53.7031H93.1973C93.1973 53.7161 93.7799 54.9108 94.9453 57.2871C96.2279 59.9108 96.8822 61.2487 96.9082 61.3008C96.9473 61.3724 97.5788 62.668 98.8027 65.1875L100.18 68H94.6914C94.6849 68 94.6263 67.8828 94.5156 67.6484C94.4766 67.5768 93.819 66.2357 92.543 63.625C91.306 61.0924 90.6289 59.7057 90.5117 59.4648C90.5052 59.4518 90.4792 59.403 90.4336 59.3184C91.7747 56.584 92.4746 55.1549 92.5332 55.0312C92.5332 55.0312 92.6895 54.7122 93.002 54.0742C93.1257 53.8333 93.1875 53.7096 93.1875 53.7031ZM93.1875 56.0469C93.1484 56.125 92.6146 57.2155 91.5859 59.3184C93.0378 62.2871 93.7767 63.8008 93.8027 63.8594L95.3164 66.9453C95.3229 66.9648 95.3294 66.9746 95.3359 66.9746H98.5293V66.9648C97.097 64.0352 96.3516 62.5085 96.293 62.3848C95.0039 59.7546 94.3268 58.3743 94.2617 58.2441L93.1875 56.0469ZM89.6523 60.9395L91.2637 64.2207C91.3288 64.3509 91.944 65.6107 93.1094 68H93.0996H86.2051H86.1953C87.4779 65.3698 88.1419 64.0124 88.1875 63.9277L89.5938 61.0469C89.6263 60.9753 89.6458 60.9395 89.6523 60.9395ZM89.6523 63.2832L87.8945 66.8867C87.888 66.8932 87.8717 66.9225 87.8457 66.9746H91.459C90.2611 64.5267 89.6589 63.2962 89.6523 63.2832ZM98.1777 53.8789H109.877C109.883 53.8789 109.887 53.8822 109.887 53.8887V58.752C109.887 58.7585 109.883 58.7617 109.877 58.7617H108.832C108.826 58.7617 108.822 58.7585 108.822 58.752V57.0039H104.564V67.9902C104.564 67.9967 104.561 68 104.555 68H103.5C103.5 68 103.5 67.9967 103.5 67.9902V57.0039H99.2422V58.752C99.2422 58.7585 99.2389 58.7617 99.2324 58.7617H98.1777C98.1712 58.7617 98.168 58.7585 98.168 58.752V53.8887C98.168 53.8822 98.1712 53.8789 98.1777 53.8789ZM99.2422 54.9434V55.9395H103.5V54.9434H99.2422ZM104.564 54.9434V55.9395H108.822V54.9434H104.564ZM123.559 53.7031H123.568C123.568 53.7161 124.151 54.9108 125.316 57.2871C126.599 59.9108 127.253 61.2487 127.279 61.3008C127.318 61.3724 127.95 62.668 129.174 65.1875L130.551 68H125.062C125.056 68 124.997 67.8828 124.887 67.6484C124.848 67.5768 124.19 66.2357 122.914 63.625C121.677 61.0924 121 59.7057 120.883 59.4648C120.876 59.4518 120.85 59.403 120.805 59.3184C122.146 56.584 122.846 55.1549 122.904 55.0312C122.904 55.0312 123.061 54.7122 123.373 54.0742C123.497 53.8333 123.559 53.7096 123.559 53.7031ZM123.559 56.0469C123.52 56.125 122.986 57.2155 121.957 59.3184C123.409 62.2871 124.148 63.8008 124.174 63.8594L125.688 66.9453C125.694 66.9648 125.701 66.9746 125.707 66.9746H128.9V66.9648C127.468 64.0352 126.723 62.5085 126.664 62.3848C125.375 59.7546 124.698 58.3743 124.633 58.2441L123.559 56.0469ZM120.023 60.9395L121.635 64.2207C121.7 64.3509 122.315 65.6107 123.48 68H123.471H116.576H116.566C117.849 65.3698 118.513 64.0124 118.559 63.9277L119.965 61.0469C119.997 60.9753 120.017 60.9395 120.023 60.9395ZM120.023 63.2832L118.266 66.8867C118.259 66.8932 118.243 66.9225 118.217 66.9746H121.83C120.632 64.5267 120.03 63.2962 120.023 63.2832ZM131.615 53.9082H138.373C139.298 53.9082 140.18 54.1719 141.02 54.6992C141.208 54.8229 141.42 54.9889 141.654 55.1973C141.921 55.4512 142.084 55.6237 142.143 55.7148C142.292 55.8971 142.429 56.0892 142.553 56.291C143.021 57.0918 143.256 57.9284 143.256 58.8008V58.8594C143.256 59.6406 143.061 60.3958 142.67 61.125C142.566 61.3203 142.429 61.5319 142.26 61.7598C142.162 61.89 141.993 62.0755 141.752 62.3164C140.808 63.1888 139.691 63.625 138.402 63.625H132.67V67.9902C132.67 67.9967 132.667 68 132.66 68H131.615C131.609 68 131.605 67.9967 131.605 67.9902V53.918C131.605 53.9115 131.609 53.9082 131.615 53.9082ZM132.67 54.9727V62.5605H138.402C139.457 62.5605 140.362 62.1927 141.117 61.457C141.339 61.2161 141.505 61.0078 141.615 60.832C142.006 60.207 142.201 59.5397 142.201 58.8301C142.201 57.9251 141.902 57.1016 141.303 56.3594C141.107 56.138 140.925 55.959 140.756 55.8223C140.469 55.6074 140.219 55.4512 140.004 55.3535C139.47 55.0996 138.92 54.9727 138.354 54.9727H132.67ZM137.436 58.0781C137.657 58.0781 137.842 58.1758 137.992 58.3711C138.077 58.4948 138.119 58.6217 138.119 58.752V58.7715C138.119 59.0124 138.005 59.2077 137.777 59.3574C137.667 59.416 137.556 59.4453 137.445 59.4453H137.426C137.185 59.4453 136.99 59.3346 136.84 59.1133C136.775 58.9961 136.742 58.8822 136.742 58.7715V58.752C136.742 58.5371 136.84 58.3548 137.035 58.2051C137.159 58.1204 137.292 58.0781 137.436 58.0781ZM145.424 53.9082H152.182C153.106 53.9082 153.988 54.1719 154.828 54.6992C155.017 54.8229 155.229 54.9889 155.463 55.1973C155.73 55.4512 155.893 55.6237 155.951 55.7148C156.101 55.8971 156.238 56.0892 156.361 56.291C156.83 57.0918 157.064 57.9284 157.064 58.8008V58.8594C157.064 59.6406 156.869 60.3958 156.479 61.125C156.374 61.3203 156.238 61.5319 156.068 61.7598C155.971 61.89 155.801 62.0755 155.561 62.3164C154.617 63.1888 153.5 63.625 152.211 63.625H146.479V67.9902C146.479 67.9967 146.475 68 146.469 68H145.424C145.417 68 145.414 67.9967 145.414 67.9902V53.918C145.414 53.9115 145.417 53.9082 145.424 53.9082ZM146.479 54.9727V62.5605H152.211C153.266 62.5605 154.171 62.1927 154.926 61.457C155.147 61.2161 155.313 61.0078 155.424 60.832C155.814 60.207 156.01 59.5397 156.01 58.8301C156.01 57.9251 155.71 57.1016 155.111 56.3594C154.916 56.138 154.734 55.959 154.564 55.8223C154.278 55.6074 154.027 55.4512 153.812 55.3535C153.279 55.0996 152.729 54.9727 152.162 54.9727H146.479ZM151.244 58.0781C151.465 58.0781 151.651 58.1758 151.801 58.3711C151.885 58.4948 151.928 58.6217 151.928 58.752V58.7715C151.928 59.0124 151.814 59.2077 151.586 59.3574C151.475 59.416 151.365 59.4453 151.254 59.4453H151.234C150.993 59.4453 150.798 59.3346 150.648 59.1133C150.583 58.9961 150.551 58.8822 150.551 58.7715V58.752C150.551 58.5371 150.648 58.3548 150.844 58.2051C150.967 58.1204 151.101 58.0781 151.244 58.0781ZM169.232 53.9082H169.721C170.372 53.9082 170.974 54.1198 171.527 54.543C171.729 54.7188 171.882 54.875 171.986 55.0117C172.331 55.487 172.504 55.9883 172.504 56.5156V56.5254C172.504 56.5319 172.501 56.5352 172.494 56.5352H171.439C171.433 56.5352 171.43 56.5319 171.43 56.5254V56.5059C171.43 56.1803 171.306 55.8711 171.059 55.5781C170.889 55.4023 170.766 55.2949 170.688 55.2559C170.395 55.0671 170.033 54.9727 169.604 54.9727H169.35C168.861 54.9727 168.458 55.1029 168.139 55.3633C168.015 55.4609 167.921 55.5553 167.855 55.6465C167.66 55.9134 167.562 56.1966 167.562 56.4961C167.562 56.9258 167.722 57.3099 168.041 57.6484C168.23 57.8307 168.406 57.9577 168.568 58.0293C168.868 58.1725 169.167 58.2441 169.467 58.2441H169.789C170.486 58.2441 171.081 58.3288 171.576 58.498C171.811 58.5697 172.035 58.6576 172.25 58.7617C172.517 58.8854 172.797 59.0482 173.09 59.25C173.253 59.3672 173.464 59.5495 173.725 59.7969C174.011 60.1029 174.206 60.3438 174.311 60.5195C174.538 60.8516 174.724 61.2357 174.867 61.6719C174.997 62.1146 175.062 62.5443 175.062 62.9609V63.166C175.062 64.123 174.76 65.0247 174.154 65.8711C174.044 66.0273 173.878 66.2194 173.656 66.4473C173.331 66.7533 173.087 66.9551 172.924 67.0527C172.553 67.3197 172.107 67.541 171.586 67.7168C171 67.9056 170.424 68 169.857 68H169.311C168.314 68 167.374 67.7331 166.488 67.1992C166.247 67.056 165.974 66.8477 165.668 66.5742C165.408 66.3138 165.245 66.1348 165.18 66.0371C164.965 65.7637 164.809 65.5293 164.711 65.334C164.359 64.6569 164.184 63.9635 164.184 63.2539V63.2246C164.184 63.2181 164.187 63.2148 164.193 63.2148H165.238C165.245 63.2148 165.248 63.2181 165.248 63.2246V63.2539C165.248 63.957 165.476 64.6309 165.932 65.2754C166.029 65.4121 166.176 65.5781 166.371 65.7734C166.658 66.0273 166.879 66.1966 167.035 66.2812C167.25 66.418 167.494 66.5417 167.768 66.6523C168.249 66.8411 168.816 66.9355 169.467 66.9355H169.691C170.349 66.9355 170.915 66.8411 171.391 66.6523C171.612 66.5742 171.814 66.4831 171.996 66.3789C172.198 66.2747 172.452 66.0957 172.758 65.8418C172.953 65.653 173.1 65.4967 173.197 65.373C173.731 64.6829 173.998 63.9505 173.998 63.1758V62.9609C173.998 62.2383 173.757 61.5514 173.275 60.9004C173.204 60.7962 173.054 60.6335 172.826 60.4121C172.436 60.0605 172.016 59.7969 171.566 59.6211C171.052 59.4193 170.505 59.3184 169.926 59.3184H169.525C168.673 59.3184 167.937 59.0221 167.318 58.4297C166.765 57.8633 166.488 57.2188 166.488 56.4961C166.488 55.8581 166.726 55.2819 167.201 54.7676C167.41 54.5658 167.592 54.4193 167.748 54.3281C168.223 54.0482 168.718 53.9082 169.232 53.9082ZM169.633 62.1406C169.854 62.1406 170.04 62.2383 170.189 62.4336C170.274 62.5573 170.316 62.6842 170.316 62.8145V62.8633C170.316 63.0456 170.235 63.2116 170.072 63.3613C169.936 63.4655 169.796 63.5176 169.652 63.5176H169.604C169.395 63.5176 169.216 63.4264 169.066 63.2441C168.982 63.1139 168.939 62.987 168.939 62.8633V62.8145C168.939 62.6191 169.021 62.4466 169.184 62.2969C169.32 62.1927 169.47 62.1406 169.633 62.1406ZM184.164 53.8984C184.164 53.9049 183.64 54.9629 182.592 57.0723C182.54 57.1829 181.931 58.4167 180.766 60.7734C179.561 63.2083 178.897 64.5462 178.773 64.7871C178.63 65.0996 178.507 65.347 178.402 65.5293C178.012 64.9238 177.761 64.5234 177.65 64.3281C177.084 63.2669 176.801 62.1634 176.801 61.0176V60.9492C176.801 59.6667 177.146 58.4525 177.836 57.3066C177.999 57.0332 178.223 56.7272 178.51 56.3887C178.725 56.1348 178.982 55.8776 179.281 55.6172C180.023 55.0052 180.821 54.5625 181.674 54.2891C181.921 54.2044 182.247 54.1263 182.65 54.0547C182.852 54.0091 183.357 53.957 184.164 53.8984ZM185.619 54.1621C186.296 54.3704 186.833 54.5918 187.23 54.8262C187.471 54.9499 187.735 55.1191 188.021 55.334C188.217 55.4642 188.451 55.6628 188.725 55.9297C189.07 56.2747 189.294 56.5221 189.398 56.6719C189.665 57.0299 189.861 57.3262 189.984 57.5605C190.154 57.8535 190.313 58.2083 190.463 58.625C190.736 59.3932 190.873 60.1615 190.873 60.9297V61.0176C190.873 62.2025 190.567 63.3418 189.955 64.4355C189.792 64.7285 189.571 65.0508 189.291 65.4023C188.959 65.806 188.611 66.1543 188.246 66.4473C187.973 66.6621 187.732 66.8314 187.523 66.9551C186.365 67.6517 185.15 68 183.881 68H183.783C182.598 68 181.456 67.6973 180.355 67.0918C180.16 66.9746 179.88 66.7923 179.516 66.5449V66.5352C179.724 66.112 180.45 64.6374 181.693 62.1113C183.139 59.1882 183.865 57.7168 183.871 57.6973C183.969 57.5085 184.535 56.3594 185.57 54.25C185.596 54.1914 185.613 54.1621 185.619 54.1621ZM177.865 60.9688V60.9883C177.865 61.7695 178.018 62.5378 178.324 63.293C178.363 63.2279 179.04 61.8672 180.355 59.2109C181.54 56.8086 182.198 55.4772 182.328 55.2168V55.207C182.1 55.2656 181.876 55.3372 181.654 55.4219C180.307 55.9753 179.278 56.8932 178.568 58.1758C178.1 59.0677 177.865 59.9987 177.865 60.9688ZM186.156 55.4805C185.062 57.694 184.184 59.4746 183.52 60.8223C182.016 63.8757 181.212 65.5065 181.107 65.7148L180.883 66.1641C181.033 66.2487 181.234 66.3496 181.488 66.4668C182.257 66.7793 183.015 66.9355 183.764 66.9355H183.92C184.76 66.9355 185.606 66.7337 186.459 66.3301C186.765 66.1803 187.094 65.9785 187.445 65.7246C187.621 65.5879 187.807 65.4251 188.002 65.2363C188.256 64.9824 188.435 64.7871 188.539 64.6504C188.786 64.3184 188.965 64.0449 189.076 63.8301C189.564 62.9382 189.809 61.9909 189.809 60.9883V60.959C189.809 59.7155 189.434 58.5599 188.686 57.4922C188.555 57.3034 188.363 57.0755 188.109 56.8086C187.829 56.5286 187.602 56.3301 187.426 56.2129C187.1 55.972 186.791 55.7799 186.498 55.6367C186.335 55.5586 186.221 55.5065 186.156 55.4805ZM199.203 53.7715C199.203 53.7715 199.206 53.7715 199.213 53.7715C197.872 56.4798 197.139 57.9609 197.016 58.2148C195.72 60.832 195.036 62.2122 194.965 62.3555L193.402 65.5098C193.357 65.4512 193.139 65.1126 192.748 64.4941C192.104 63.3613 191.781 62.1829 191.781 60.959V60.8711C191.781 59.6992 192.077 58.5697 192.67 57.4824C193.458 56.0762 194.6 55.0443 196.098 54.3867C196.339 54.2891 196.609 54.1947 196.908 54.1035C197.13 54.0384 197.406 53.9766 197.738 53.918C197.966 53.8789 198.454 53.8301 199.203 53.7715ZM200.678 54.0352C201.394 54.263 201.96 54.5007 202.377 54.748C202.65 54.8978 202.953 55.0996 203.285 55.3535C203.454 55.4837 203.702 55.7083 204.027 56.0273C204.366 56.4049 204.617 56.7174 204.779 56.9648C205.04 57.3685 205.232 57.7201 205.355 58.0195C205.453 58.2344 205.544 58.4655 205.629 58.7129C205.056 58.9017 204.717 59.0124 204.613 59.0449C204.503 58.7324 204.376 58.4297 204.232 58.1367C204.05 57.7917 203.799 57.4206 203.48 57.0234C203.194 56.7044 202.947 56.4635 202.738 56.3008C202.419 56.0404 202.149 55.8483 201.928 55.7246C201.654 55.5684 201.417 55.4512 201.215 55.373C201.169 55.4642 200.622 56.5775 199.574 58.7129C198.181 61.5254 197.465 62.9707 197.426 63.0488L195.902 66.1445C196.84 66.6654 197.833 66.9258 198.881 66.9258C200.105 66.9258 201.244 66.571 202.299 65.8613C202.514 65.7181 202.781 65.4967 203.1 65.1973C203.386 64.9043 203.591 64.6699 203.715 64.4941C203.871 64.2858 204.018 64.0612 204.154 63.8203C204.298 63.5599 204.421 63.2897 204.525 63.0098C204.525 63.0033 204.529 63 204.535 63C204.613 63.026 204.945 63.1497 205.531 63.3711C205.421 63.6771 205.29 63.9701 205.141 64.25C204.952 64.6146 204.691 65.0052 204.359 65.4219C204.216 65.5846 204.037 65.7767 203.822 65.998C203.458 66.3301 203.174 66.5645 202.973 66.7012C202.706 66.8835 202.452 67.0365 202.211 67.1602C201.15 67.7201 200.053 68 198.92 68H198.832C197.699 68 196.602 67.7233 195.541 67.1699C195.294 67.0397 194.952 66.8249 194.516 66.5254C195.095 65.3535 195.86 63.804 196.811 61.877C198.204 59.0514 198.92 57.6029 198.959 57.5312C200.033 55.3503 200.606 54.1849 200.678 54.0352ZM192.855 60.9102C192.855 61.7044 193.012 62.4824 193.324 63.2441C193.402 63.1009 193.656 62.5866 194.086 61.7012C194.171 61.5449 194.857 60.1615 196.146 57.5508C196.915 55.9948 197.318 55.1745 197.357 55.0898C197.006 55.1875 196.697 55.2949 196.43 55.4121C195.043 56.0632 194.031 57.0723 193.393 58.4395C193.035 59.2402 192.855 60.0638 192.855 60.9102ZM208.041 53.9082H209.096C209.102 53.9082 209.105 53.9115 209.105 53.918V58.4297C209.112 58.4297 209.633 58.1107 210.668 57.4727V53.918C210.668 53.9115 210.671 53.9082 210.678 53.9082H211.732C211.739 53.9082 211.742 53.9115 211.742 53.918V56.8184C214.522 55.1126 216.013 54.1979 216.215 54.0742C216.391 53.9635 216.485 53.9082 216.498 53.9082H218.559V53.918C218.526 53.9375 217.318 54.6732 214.936 56.125C212.846 57.401 211.781 58.0488 211.742 58.0684V63.8398L215.209 65.9492C216.96 67.0169 218.077 67.6973 218.559 67.9902V68H216.498C216.459 67.987 216.286 67.8828 215.98 67.6875C215.902 67.6419 214.825 66.9844 212.748 65.7148L211.742 65.0898V67.9902C211.742 67.9967 211.739 68 211.732 68H210.678C210.671 68 210.668 67.9967 210.668 67.9902V64.4355C210.635 64.4095 210.382 64.2533 209.906 63.9668C209.398 63.6543 209.132 63.4915 209.105 63.4785V67.9902C209.105 67.9967 209.102 68 209.096 68H208.041C208.035 68 208.031 67.9967 208.031 67.9902V62.8242C207.966 62.7721 206.973 62.1602 205.053 60.9883C205.02 60.9688 205.004 60.9557 205.004 60.9492C205.108 60.8841 206.075 60.2917 207.904 59.1719C207.989 59.1198 208.031 59.0905 208.031 59.084V53.918C208.038 53.9115 208.041 53.9082 208.041 53.9082ZM209.105 59.6992V62.209C209.21 62.2806 209.73 62.6029 210.668 63.1758V58.7324H210.658C209.688 59.3314 209.171 59.6536 209.105 59.6992ZM207.045 60.9492V60.959C207.084 60.9785 207.413 61.1803 208.031 61.5645V60.3438C207.413 60.7279 207.084 60.9297 207.045 60.9492ZM220.902 53.9082H232.836C232.842 53.9082 232.846 53.9115 232.846 53.918V54.9629C232.846 54.9694 232.842 54.9727 232.836 54.9727H223.49C225.378 56.8411 226.462 57.9121 226.742 58.1855C226.742 58.1855 226.762 58.2051 226.801 58.2441H232.836C232.842 58.2507 232.846 58.2539 232.846 58.2539V59.3086C232.846 59.3151 232.842 59.3184 232.836 59.3184H226.107C225.261 59.3184 224.503 59.6146 223.832 60.207C223.611 60.4219 223.464 60.5846 223.393 60.6953C222.95 61.3073 222.729 61.9746 222.729 62.6973V62.707C222.729 63.6901 223.051 64.5885 223.695 65.4023C223.793 65.5195 223.93 65.6595 224.105 65.8223C224.939 66.5645 225.902 66.9355 226.996 66.9355H232.836C232.842 66.9355 232.846 66.9388 232.846 66.9453V67.9902C232.846 67.9967 232.842 68 232.836 68H226.938C225.87 68 224.87 67.6842 223.939 67.0527C223.764 66.9421 223.529 66.7467 223.236 66.4668C222.93 66.1478 222.729 65.9069 222.631 65.7441C222.423 65.4642 222.24 65.1419 222.084 64.7773C221.798 64.1003 221.654 63.4069 221.654 62.6973C221.654 61.6947 221.973 60.7799 222.611 59.9531C222.696 59.8424 222.852 59.6732 223.08 59.4453C223.34 59.2109 223.588 59.0254 223.822 58.8887C224.07 58.7454 224.314 58.625 224.555 58.5273C224.73 58.4622 224.952 58.4004 225.219 58.3418C225.284 58.3288 225.329 58.3223 225.355 58.3223C225.186 58.153 224.372 57.349 222.914 55.9102L220.902 53.9082ZM228.041 62.4336C228.262 62.4336 228.451 62.5345 228.607 62.7363C228.686 62.86 228.725 62.9805 228.725 63.0977V63.1562C228.725 63.332 228.643 63.4948 228.48 63.6445C228.35 63.7552 228.21 63.8105 228.061 63.8105H228.002C227.826 63.8105 227.66 63.7292 227.504 63.5664C227.4 63.4362 227.348 63.2962 227.348 63.1465V63.1074C227.348 62.8991 227.442 62.7168 227.631 62.5605C227.761 62.4759 227.898 62.4336 228.041 62.4336ZM235.014 53.8789H246.713C246.719 53.8789 246.723 53.8822 246.723 53.8887V58.752C246.723 58.7585 246.719 58.7617 246.713 58.7617H245.668C245.661 58.7617 245.658 58.7585 245.658 58.752V57.0039H241.4V67.9902C241.4 67.9967 241.397 68 241.391 68H240.336C240.336 68 240.336 67.9967 240.336 67.9902V57.0039H236.078V58.752C236.078 58.7585 236.075 58.7617 236.068 58.7617H235.014C235.007 58.7617 235.004 58.7585 235.004 58.752V53.8887C235.004 53.8822 235.007 53.8789 235.014 53.8789ZM236.078 54.9434V55.9395H240.336V54.9434H236.078ZM241.4 54.9434V55.9395H245.658V54.9434H241.4ZM250.873 66.6621C251.088 66.6621 251.267 66.7533 251.41 66.9355C251.495 67.0527 251.537 67.1797 251.537 67.3164V67.3262C251.537 67.5736 251.423 67.7656 251.195 67.9023C251.098 67.9609 250.997 67.9902 250.893 67.9902H250.854C250.626 67.9902 250.437 67.8796 250.287 67.6582C250.235 67.5475 250.209 67.4368 250.209 67.3262V67.3164C250.209 67.0885 250.316 66.8997 250.531 66.75C250.642 66.6914 250.756 66.6621 250.873 66.6621ZM253.9 53.918H258.129C258.135 53.918 258.139 53.9212 258.139 53.9277V54.9727C258.139 54.9792 258.135 54.9824 258.129 54.9824H256.547V60.3242H258.129C258.135 60.3242 258.139 60.3275 258.139 60.334V61.3887C258.139 61.3887 258.135 61.3887 258.129 61.3887H256.547V66.9355H258.129C258.135 66.9355 258.139 66.9388 258.139 66.9453V67.9902C258.139 67.9967 258.135 68 258.129 68H253.9C253.894 68 253.891 67.9967 253.891 67.9902V66.9453C253.891 66.9388 253.894 66.9355 253.9 66.9355H255.482V61.3887H253.9C253.894 61.3887 253.891 61.3887 253.891 61.3887V60.334C253.891 60.3275 253.894 60.3242 253.9 60.3242H255.482V54.9824H253.9C253.894 54.9824 253.891 54.9792 253.891 54.9727V53.9277C253.891 53.9212 253.894 53.918 253.9 53.918ZM267.68 53.8984C267.68 53.9049 267.156 54.9629 266.107 57.0723C266.055 57.1829 265.447 58.4167 264.281 60.7734C263.077 63.2083 262.413 64.5462 262.289 64.7871C262.146 65.0996 262.022 65.347 261.918 65.5293C261.527 64.9238 261.277 64.5234 261.166 64.3281C260.6 63.2669 260.316 62.1634 260.316 61.0176V60.9492C260.316 59.6667 260.661 58.4525 261.352 57.3066C261.514 57.0332 261.739 56.7272 262.025 56.3887C262.24 56.1348 262.497 55.8776 262.797 55.6172C263.539 55.0052 264.337 54.5625 265.189 54.2891C265.437 54.2044 265.762 54.1263 266.166 54.0547C266.368 54.0091 266.872 53.957 267.68 53.8984ZM269.135 54.1621C269.812 54.3704 270.349 54.5918 270.746 54.8262C270.987 54.9499 271.251 55.1191 271.537 55.334C271.732 55.4642 271.967 55.6628 272.24 55.9297C272.585 56.2747 272.81 56.5221 272.914 56.6719C273.181 57.0299 273.376 57.3262 273.5 57.5605C273.669 57.8535 273.829 58.2083 273.979 58.625C274.252 59.3932 274.389 60.1615 274.389 60.9297V61.0176C274.389 62.2025 274.083 63.3418 273.471 64.4355C273.308 64.7285 273.087 65.0508 272.807 65.4023C272.475 65.806 272.126 66.1543 271.762 66.4473C271.488 66.6621 271.247 66.8314 271.039 66.9551C269.88 67.6517 268.666 68 267.396 68H267.299C266.114 68 264.971 67.6973 263.871 67.0918C263.676 66.9746 263.396 66.7923 263.031 66.5449V66.5352C263.24 66.112 263.965 64.6374 265.209 62.1113C266.654 59.1882 267.38 57.7168 267.387 57.6973C267.484 57.5085 268.051 56.3594 269.086 54.25C269.112 54.1914 269.128 54.1621 269.135 54.1621ZM261.381 60.9688V60.9883C261.381 61.7695 261.534 62.5378 261.84 63.293C261.879 63.2279 262.556 61.8672 263.871 59.2109C265.056 56.8086 265.714 55.4772 265.844 55.2168V55.207C265.616 55.2656 265.391 55.3372 265.17 55.4219C263.822 55.9753 262.794 56.8932 262.084 58.1758C261.615 59.0677 261.381 59.9987 261.381 60.9688ZM269.672 55.4805C268.578 57.694 267.699 59.4746 267.035 60.8223C265.531 63.8757 264.727 65.5065 264.623 65.7148L264.398 66.1641C264.548 66.2487 264.75 66.3496 265.004 66.4668C265.772 66.7793 266.531 66.9355 267.279 66.9355H267.436C268.275 66.9355 269.122 66.7337 269.975 66.3301C270.281 66.1803 270.609 65.9785 270.961 65.7246C271.137 65.5879 271.322 65.4251 271.518 65.2363C271.771 64.9824 271.951 64.7871 272.055 64.6504C272.302 64.3184 272.481 64.0449 272.592 63.8301C273.08 62.9382 273.324 61.9909 273.324 60.9883V60.959C273.324 59.7155 272.95 58.5599 272.201 57.4922C272.071 57.3034 271.879 57.0755 271.625 56.8086C271.345 56.5286 271.117 56.3301 270.941 56.2129C270.616 55.972 270.307 55.7799 270.014 55.6367C269.851 55.5586 269.737 55.5065 269.672 55.4805Z" fill="white"/>
<path d="M197.494 116C197.089 116 196.678 115.889 196.322 115.68L192.593 113.435C192.037 113.115 192.309 113.004 192.49 112.943C193.234 112.678 193.385 112.623 194.176 112.162C194.261 112.112 194.37 112.131 194.454 112.186L197.319 113.915C197.421 113.976 197.566 113.976 197.663 113.915L208.825 107.357C208.927 107.296 208.994 107.173 208.994 107.05V93.9349C208.994 93.8057 208.927 93.6889 208.818 93.6212L197.663 87.0699C197.56 87.0084 197.421 87.0084 197.319 87.0699L186.169 93.6273C186.061 93.6889 185.994 93.8119 185.994 93.9411V107.05C185.994 107.173 186.061 107.296 186.169 107.351L189.227 109.147C190.889 109.99 191.904 109 191.904 107.997V95.0545C191.904 94.8699 192.049 94.7284 192.231 94.7284H193.645C193.82 94.7284 193.971 94.8699 193.971 95.0545V108.003C193.971 110.255 192.762 111.546 190.665 111.546C190.019 111.546 189.511 111.546 188.097 110.833L185.172 109.117C184.447 108.692 184 107.899 184 107.044V93.9349C184 93.086 184.447 92.2863 185.172 91.8619L196.322 85.3045C197.029 84.8985 197.965 84.8985 198.666 85.3045L209.828 91.868C210.553 92.2925 211 93.086 211 93.9411V107.05C211 107.899 210.553 108.692 209.828 109.123L198.666 115.68C198.31 115.889 197.905 116 197.494 116ZM206.504 103.076C206.504 100.621 204.872 99.9694 201.446 99.5081C197.977 99.0406 197.627 98.8007 197.627 97.9764C197.627 97.2936 197.923 96.3832 200.491 96.3832C202.782 96.3832 203.628 96.8876 203.978 98.4623C204.008 98.61 204.141 98.7207 204.292 98.7207H205.743C205.833 98.7207 205.918 98.6838 205.978 98.6161C206.039 98.5485 206.069 98.4562 206.063 98.3639C205.839 95.6512 204.069 94.3901 200.491 94.3901C197.307 94.3901 195.409 95.7557 195.409 98.0502C195.409 100.535 197.301 101.224 200.352 101.532C204.008 101.895 204.292 102.442 204.292 103.174C204.292 104.442 203.289 104.983 200.938 104.983C197.983 104.983 197.337 104.226 197.119 102.731C197.095 102.571 196.962 102.455 196.799 102.455H195.355C195.173 102.455 195.034 102.602 195.034 102.781C195.034 104.694 196.056 106.976 200.944 106.976C204.474 106.97 206.504 105.549 206.504 103.076V103.076Z" fill="#0FA958"/>
<path d="M166.503 114L165.699 113.756C165.699 113.756 165.806 110.03 164.332 109.769C163.368 108.741 164.475 65.9035 168 109.622C167.331 109.933 166.819 110.468 166.572 111.116C166.439 112.072 166.416 113.039 166.503 114V114Z" fill="url(#paint1_linear_1_9)"/>
<path d="M166.075 110C167.944 108.573 169.375 106.637 170.202 104.417C171.029 102.197 171.218 99.7845 170.747 97.4598C169.374 91.3106 166.121 89.289 165.771 88.5172C165.469 88.0365 165.211 87.5287 165 87L165.259 104.133C165.259 104.133 164.722 109.369 166.075 110Z" fill="url(#paint2_linear_1_9)"/>
<path d="M164.311 111C164.311 111 158.688 106.928 159.014 99.7234C159.044 97.5515 159.512 95.4118 160.387 93.4489C161.262 91.486 162.522 89.7456 164.084 88.3451C164.266 88.1803 164.411 87.9736 164.508 87.7406C164.604 87.5077 164.65 87.2544 164.641 87C164.991 87.801 164.934 98.9595 164.971 100.265C165.113 105.341 164.706 110.042 164.311 111V111Z" fill="url(#paint3_linear_1_9)"/>
<path d="M231.5 103C232.881 103 234 101.881 234 100.5C234 99.1193 232.881 98 231.5 98C230.119 98 229 99.1193 229 100.5C229 101.881 230.119 103 231.5 103Z" fill="#00D8FF"/>
<path d="M231.5 105.992C228.602 106.062 225.712 105.672 222.937 104.837C221.655 104.431 220.46 103.792 219.411 102.951C219.011 102.664 218.677 102.294 218.434 101.866C218.19 101.439 218.042 100.963 218 100.473C218 98.8814 219.751 97.3216 222.684 96.301C225.534 95.3967 228.511 94.9584 231.5 95.0031C234.449 94.962 237.387 95.3923 240.2 96.2779C241.434 96.6709 242.589 97.2792 243.611 98.0746C244.005 98.3482 244.333 98.705 244.573 99.1194C244.813 99.5339 244.959 99.996 245 100.473C245 102.127 243.043 103.803 239.889 104.845C237.168 105.653 234.339 106.04 231.5 105.992V105.992ZM231.5 96.1547C228.64 96.1165 225.792 96.5332 223.063 97.389C220.363 98.3297 219.153 99.6161 219.153 100.47C219.153 101.364 220.454 102.768 223.31 103.744C225.965 104.539 228.729 104.909 231.5 104.84C234.216 104.889 236.923 104.522 239.528 103.752C242.493 102.771 243.843 101.365 243.843 100.473C243.794 100.167 243.683 99.8745 243.515 99.6138C243.347 99.3531 243.127 99.13 242.869 98.9585C241.955 98.2528 240.923 97.7137 239.821 97.3659C237.13 96.5222 234.321 96.1133 231.5 96.1547V96.1547Z" fill="#00D8FF"/>
<path d="M225.886 111.999C225.424 112.01 224.967 111.901 224.562 111.683C223.144 110.887 222.653 108.591 223.248 105.541C223.904 102.622 225.042 99.8253 226.616 97.2594C228.092 94.6853 229.983 92.3576 232.215 90.3646C233.199 89.4921 234.334 88.7961 235.567 88.3089C236.013 88.1054 236.5 88 236.993 88C237.485 88 237.972 88.1054 238.418 88.3089C239.893 89.1358 240.381 91.6686 239.693 94.9194C239.016 97.6802 237.909 100.324 236.408 102.758C234.984 105.301 233.153 107.609 230.984 109.594C229.965 110.5 228.782 111.216 227.494 111.703C226.979 111.89 226.435 111.99 225.886 111.999V111.999ZM227.642 97.8319C226.14 100.289 225.05 102.963 224.413 105.753C223.865 108.563 224.391 110.252 225.156 110.682C225.948 111.128 227.872 110.705 230.208 108.72C232.278 106.818 234.025 104.609 235.385 102.176C236.822 99.8486 237.885 97.3212 238.536 94.6813C239.184 91.6213 238.624 89.7478 237.83 89.3025C237.532 89.1915 237.214 89.1418 236.895 89.1566C236.577 89.1713 236.265 89.2502 235.979 89.3883C234.882 89.8291 233.872 90.4548 232.998 91.2368C230.865 93.1458 229.059 95.3742 227.649 97.8377L227.642 97.8319Z" fill="#00D8FF"/>
<path d="M237.094 111.999C235.755 111.999 234.053 111.208 232.281 109.722C230.013 107.709 228.094 105.352 226.598 102.741C225.047 100.208 223.92 97.4497 223.262 94.5698C222.977 93.3028 222.924 91.9964 223.106 90.7113C223.148 90.2346 223.297 89.7727 223.542 89.3582C223.787 88.9437 224.122 88.5867 224.524 88.3123C225.994 87.4818 228.489 88.3355 231.035 90.5406C233.152 92.4912 234.949 94.747 236.365 97.2292C237.915 99.7028 239.053 102.401 239.736 105.223C240.034 106.536 240.08 107.892 239.872 109.222C239.822 109.713 239.665 110.187 239.41 110.612C239.155 111.038 238.808 111.404 238.395 111.687C237.997 111.902 237.549 112.01 237.094 111.999V111.999ZM227.622 102.16C229.057 104.655 230.89 106.911 233.052 108.844C235.276 110.711 237.04 111.112 237.798 110.677C238.589 110.228 239.173 108.397 238.572 105.435C237.913 102.741 236.821 100.165 235.337 97.8041C233.986 95.4284 232.271 93.2684 230.25 91.3991C227.853 89.3233 225.909 88.8593 225.117 89.3069C224.87 89.5026 224.668 89.7461 224.522 90.022C224.377 90.298 224.291 90.6003 224.272 90.91C224.115 92.0561 224.166 93.2202 224.423 94.3489C225.056 97.103 226.136 99.7407 227.623 102.162L227.622 102.16Z" fill="#00D8FF"/>
<g clip-path="url(#clip0_1_9)">
<path d="M125 110L125.186 109.737L133.981 92.9075L134 92.7293L130.123 85.385C129.798 84.7698 128.883 84.9253 128.777 85.614L125 110Z" fill="#FFC24A"/>
<path d="M125 110L125.143 109.72L134 92.8536L130.064 85.3853C129.737 84.7688 128.906 84.926 128.799 85.6161L125 110Z" fill="#FFA712"/>
<g filter="url(#filter0_i_1_9)">
<path d="M125 110L125.143 109.72L134 92.8536L130.064 85.3853C129.737 84.7688 128.906 84.926 128.799 85.6161L125 110Z" fill="black"/>
</g>
<path d="M136.983 98L140 94.9972L136.982 89.3981C136.696 88.8681 135.896 88.8665 135.612 89.3981L134 92.3864V92.6409L136.983 98H136.983Z" fill="#F4BD62"/>
<path d="M136.983 98L140 95.0012L136.983 89.4255C136.697 88.8963 136.001 88.8408 135.717 89.3716L134.05 92.489L134 92.6484L136.983 98V98Z" fill="#FFA50E"/>
<g filter="url(#filter1_i_1_9)">
<path d="M136.983 98L140 95.0012L136.983 89.4255C136.697 88.8963 136.001 88.8408 135.717 89.3716L134.05 92.489L134 92.6484L136.983 98V98Z" fill="black"/>
</g>
<path d="M125 110L125.086 109.916L125.398 109.793L136.855 98.6847L137 98.3001L134.142 93L125 110Z" fill="#F6820C"/>
<path d="M137.529 115.726L148 109.917L145.01 91.5984C144.916 91.0253 144.209 90.7988 143.797 91.2097L125 109.944L135.411 115.726C135.735 115.906 136.099 116 136.47 116C136.841 116 137.205 115.906 137.529 115.726" fill="#FDE068"/>
<path d="M148 109.162L145.005 91.5817C144.911 91.0316 144.318 90.804 143.905 91.1984L125 109.201L135.392 114.737C135.716 114.909 136.081 115 136.452 115C136.823 115 137.188 114.91 137.513 114.737L148 109.162L148 109.162Z" fill="#FCCA3F"/>
<path d="M137.529 115.572C137.205 115.745 136.84 115.835 136.47 115.835C136.099 115.835 135.735 115.745 135.411 115.572L125.084 110.092L125 110.176L135.411 115.736C135.735 115.909 136.099 116 136.47 116C136.84 116 137.205 115.909 137.529 115.737L148 110.151L147.974 110L137.529 115.572L137.529 115.572Z" fill="#EEAB37"/>
</g>
<path d="M94.2011 85.4735C98.0826 84.4771 102.373 85.0577 105.796 87.1726C110.107 89.7536 112.922 94.6357 112.993 99.6612C113.151 104.737 110.508 109.77 106.261 112.53C101.535 115.713 94.996 115.835 90.169 112.809C85.249 109.87 82.3771 103.941 83.1148 98.2488C83.7091 92.2339 88.35 86.9289 94.2011 85.4737V85.4735Z" fill="#010101"/>
<path d="M94.5311 88.8191C101.962 85.8469 111.077 91.3345 111.846 99.2942C113.043 106.456 107.093 113.734 99.8285 113.945C92.92 114.633 86.2437 108.783 86.0478 101.853C85.5326 96.2423 89.2336 90.6749 94.5311 88.8191V88.8191Z" fill="white"/>
<path d="M94.6765 100.226C98.1177 97.4891 101.484 94.657 105 92C103.156 94.7592 101.259 97.4818 99.4146 100.241C97.8327 100.248 96.2509 100.248 94.6765 100.226V100.226ZM97.5854 101.752C99.1747 101.752 100.757 101.752 102.339 101.774C98.8749 104.496 95.5237 107.35 92 110C93.8443 107.241 95.7411 104.511 97.5854 101.752Z" fill="#010101"/>
<defs>
<filter id="filter0_i_1_9" x="125" y="85" width="9" height="25" filterUnits="userSpaceOnUse" color-interpolation-filters="sRGB">
<feFlood flood-opacity="0" result="BackgroundImageFix"/>
<feBlend mode="normal" in="SourceGraphic" in2="BackgroundImageFix" result="shape"/>
<feColorMatrix in="SourceAlpha" type="matrix" values="0 0 0 0 0 0 0 0 0 0 0 0 0 0 0 0 0 0 127 0" result="hardAlpha"/>
<feOffset/>
<feGaussianBlur stdDeviation="1.54558"/>
<feComposite in2="hardAlpha" operator="arithmetic" k2="-1" k3="1"/>
<feColorMatrix type="matrix" values="0 0 0 0 0 0 0 0 0 0 0 0 0 0 0 0 0 0 0.06 0"/>
<feBlend mode="normal" in2="shape" result="effect1_innerShadow_1_9"/>
</filter>
<filter id="filter1_i_1_9" x="134" y="88.3818" width="6.08832" height="9.61823" filterUnits="userSpaceOnUse" color-interpolation-filters="sRGB">
<feFlood flood-opacity="0" result="BackgroundImageFix"/>
<feBlend mode="normal" in="SourceGraphic" in2="BackgroundImageFix" result="shape"/>
<feColorMatrix in="SourceAlpha" type="matrix" values="0 0 0 0 0 0 0 0 0 0 0 0 0 0 0 0 0 0 127 0" result="hardAlpha"/>
<feOffset dx="0.0883191" dy="-0.794872"/>
<feGaussianBlur stdDeviation="0.309117"/>
<feComposite in2="hardAlpha" operator="arithmetic" k2="-1" k3="1"/>
<feColorMatrix type="matrix" values="0 0 0 0 0 0 0 0 0 0 0 0 0 0 0 0 0 0 0.09 0"/>
<feBlend mode="normal" in2="shape" result="effect1_innerShadow_1_9"/>
</filter>
<linearGradient id="paint0_linear_1_9" x1="0" y1="89" x2="331" y2="89" gradientUnits="userSpaceOnUse">
<stop stop-color="#FC6767"/>
<stop offset="0.9999" stop-color="#FF0651"/>
<stop offset="1" stop-color="#FB2659"/>
</linearGradient>
<linearGradient id="paint1_linear_1_9" x1="161.094" y1="100.521" x2="170.161" y2="103.884" gradientUnits="userSpaceOnUse">
<stop offset="0.231" stop-color="#999875"/>
<stop offset="0.563" stop-color="#9B9977"/>
<stop offset="0.683" stop-color="#A09F7E"/>
<stop offset="0.768" stop-color="#A9A889"/>
<stop offset="0.837" stop-color="#B7B69A"/>
<stop offset="0.896" stop-color="#C9C7B0"/>
<stop offset="0.948" stop-color="#DEDDCB"/>
<stop offset="0.994" stop-color="#F8F6EB"/>
<stop offset="1" stop-color="#FBF9EF"/>
</linearGradient>
<linearGradient id="paint2_linear_1_9" x1="163.937" y1="86.8776" x2="167.606" y2="109.456" gradientUnits="userSpaceOnUse">
<stop stop-color="#48A547"/>
<stop offset="1" stop-color="#3F9143"/>
</linearGradient>
<linearGradient id="paint3_linear_1_9" x1="158.53" y1="100.436" x2="168.048" y2="97.4386" gradientUnits="userSpaceOnUse">
<stop stop-color="#41A247"/>
<stop offset="0.352" stop-color="#4BA74B"/>
<stop offset="0.956" stop-color="#67B554"/>
<stop offset="1" stop-color="#69B655"/>
</linearGradient>
<clipPath id="clip0_1_9">
<rect width="23" height="31" fill="white" transform="translate(125 85)"/>
</clipPath>
</defs>
</svg>
