<svg width="570" height="220" viewBox="0 0 570 220" fill="none" xmlns="http://www.w3.org/2000/svg">
<rect width="570" height="220" fill="url(#paint0_linear_1_2)"/>
<path d="M171.321 104.521C175.591 103.425 180.31 104.064 184.075 106.39C188.818 109.229 191.914 114.599 191.993 120.127C192.166 125.71 189.259 131.246 184.587 134.283C179.388 137.784 172.196 137.918 166.886 134.59C161.474 131.357 158.315 124.835 159.126 118.574C159.78 111.957 164.885 106.122 171.321 104.521V104.521Z" fill="#010101"/>
<path d="M171.187 107.882C179.19 104.681 189.006 110.591 189.834 119.163C191.124 126.876 184.715 134.714 176.892 134.941C169.452 135.682 162.262 129.382 162.052 121.919C161.497 115.876 165.482 109.881 171.187 107.882V107.882Z" fill="white"/>
<path d="M171.882 119.683C175.588 116.794 179.213 113.805 183 111C181.014 113.912 178.971 116.786 176.985 119.699C175.281 119.706 173.578 119.706 171.882 119.683V119.683ZM175.015 121.294C176.727 121.294 178.43 121.294 180.134 121.317C176.404 124.191 172.795 127.203 169 130C170.986 127.088 173.029 124.206 175.015 121.294Z" fill="#010101"/>
<g clip-path="url(#clip0_1_2)">
<path d="M214 131L214.207 130.716L223.979 112.54L224 112.348L219.692 104.416C219.331 103.751 218.315 103.919 218.196 104.663L214 131Z" fill="#FFC24A"/>
<path d="M214 131L214.159 130.697L224 112.482L219.627 104.416C219.263 103.75 218.341 103.92 218.221 104.665L214 131Z" fill="#FFA712"/>
<g filter="url(#filter0_i_1_2)">
<path d="M214 131L214.159 130.697L224 112.482L219.627 104.416C219.263 103.75 218.341 103.92 218.221 104.665L214 131Z" fill="black"/>
</g>
<path d="M226.983 119L230 115.664L226.982 109.442C226.696 108.853 225.896 108.852 225.612 109.442L224 112.763V113.045L226.983 119H226.983Z" fill="#F4BD62"/>
<path d="M226.983 119L230 115.668L226.983 109.473C226.697 108.885 226.001 108.823 225.717 109.413L224.05 112.877L224 113.054L226.983 119V119Z" fill="#FFA50E"/>
<g filter="url(#filter1_i_1_2)">
<path d="M226.983 119L230 115.668L226.983 109.473C226.697 108.885 226.001 108.823 225.717 109.413L224.05 112.877L224 113.054L226.983 119V119Z" fill="black"/>
</g>
<path d="M214 131L214.093 130.906L214.431 130.768L226.843 118.353L227 117.924L223.904 112L214 131Z" fill="#F6820C"/>
<path d="M227.618 137.704L239 131.431L235.75 111.646C235.648 111.027 234.88 110.783 234.431 111.226L214 131.459L225.317 137.704C225.668 137.898 226.064 138 226.467 138C226.87 138 227.266 137.898 227.618 137.704" fill="#FDE068"/>
<path d="M239 131.433L235.745 111.654C235.643 111.036 234.998 110.78 234.549 111.223L214 131.476L225.295 137.704C225.648 137.898 226.044 138 226.448 138C226.851 138 227.248 137.898 227.601 137.705L239 131.433L239 131.433Z" fill="#FCCA3F"/>
<path d="M227.618 137.501C227.266 137.702 226.87 137.808 226.467 137.808C226.064 137.808 225.668 137.702 225.316 137.5L214.091 131.107L214 131.206L225.316 137.692C225.668 137.894 226.064 138 226.467 138C226.87 138 227.266 137.894 227.618 137.693L239 131.176L238.972 131L227.618 137.501L227.618 137.501Z" fill="#EEAB37"/>
</g>
<path d="M277.503 136L276.699 135.736C276.699 135.736 276.806 131.699 275.332 131.416C274.368 130.303 275.475 83.8954 279 131.258C278.331 131.594 277.819 132.174 277.572 132.875C277.439 133.912 277.416 134.959 277.503 136V136Z" fill="url(#paint1_linear_1_2)"/>
<path d="M278.255 132C280.434 130.387 282.104 128.198 283.069 125.689C284.033 123.179 284.254 120.452 283.705 117.824C282.103 110.873 278.308 108.588 277.899 107.715C277.547 107.172 277.246 106.598 277 106L277.302 125.368C277.302 125.368 276.676 131.287 278.255 132Z" fill="url(#paint2_linear_1_2)"/>
<path d="M276.197 132C276.197 132 269.636 127.588 270.016 119.784C270.051 117.431 270.598 115.113 271.618 112.986C272.638 110.86 274.109 108.974 275.931 107.457C276.144 107.279 276.313 107.055 276.426 106.802C276.538 106.55 276.592 106.276 276.581 106C276.99 106.868 276.923 118.956 276.966 120.37C277.132 125.87 276.656 130.962 276.197 132V132Z" fill="url(#paint3_linear_1_2)"/>
<g clip-path="url(#clip1_1_2)">
<path d="M330 138C329.534 138 329.099 137.875 328.696 137.656L324.565 135.189C323.944 134.845 324.255 134.72 324.441 134.658C325.279 134.377 325.435 134.314 326.304 133.814C326.398 133.752 326.522 133.783 326.615 133.845L329.783 135.751C329.907 135.813 330.062 135.813 330.155 135.751L342.547 128.536C342.671 128.473 342.733 128.348 342.733 128.192V113.792C342.733 113.636 342.671 113.511 342.547 113.449L330.155 106.264C330.031 106.202 329.876 106.202 329.783 106.264L317.391 113.449C317.267 113.511 317.205 113.667 317.205 113.792V128.192C317.205 128.317 317.267 128.473 317.391 128.536L320.776 130.503C322.609 131.44 323.758 130.347 323.758 129.254V115.042C323.758 114.854 323.913 114.667 324.13 114.667H325.714C325.901 114.667 326.087 114.823 326.087 115.042V129.254C326.087 131.721 324.752 133.158 322.422 133.158C321.708 133.158 321.149 133.158 319.565 132.377L316.304 130.503C315.497 130.035 315 129.16 315 128.223V113.824C315 112.887 315.497 112.012 316.304 111.543L328.696 104.328C329.472 103.891 330.528 103.891 331.304 104.328L343.696 111.543C344.503 112.012 345 112.886 345 113.824V128.223C345 129.16 344.503 130.035 343.696 130.503L331.304 137.719C330.901 137.906 330.435 138 330 138V138ZM333.82 128.098C328.385 128.098 327.267 125.599 327.267 123.475C327.267 123.288 327.422 123.101 327.64 123.101H329.255C329.441 123.101 329.596 123.225 329.596 123.413C329.845 125.068 330.559 125.88 333.851 125.88C336.46 125.88 337.578 125.287 337.578 123.881C337.578 123.069 337.267 122.476 333.199 122.07C329.814 121.726 327.702 120.976 327.702 118.259C327.702 115.729 329.814 114.23 333.354 114.23C337.329 114.23 339.286 115.604 339.534 118.603C339.534 118.696 339.503 118.79 339.441 118.884C339.379 118.946 339.286 119.009 339.193 119.009H337.578C337.422 119.009 337.267 118.884 337.236 118.727C336.863 117.01 335.901 116.447 333.354 116.447C330.497 116.447 330.155 117.447 330.155 118.196C330.155 119.102 330.559 119.383 334.41 119.883C338.23 120.383 340.031 121.101 340.031 123.788C340 126.536 337.764 128.098 333.82 128.098V128.098Z" fill="#539E43"/>
</g>
<path d="M382.5 123C383.881 123 385 121.881 385 120.5C385 119.119 383.881 118 382.5 118C381.119 118 380 119.119 380 120.5C380 121.881 381.119 123 382.5 123Z" fill="#00D8FF"/>
<path d="M383 126.991C379.781 127.068 376.569 126.642 373.486 125.731C372.061 125.288 370.733 124.591 369.568 123.674C369.123 123.361 368.752 122.957 368.482 122.491C368.211 122.024 368.047 121.505 368 120.971C368 119.234 369.946 117.533 373.205 116.419C376.371 115.433 379.678 114.955 383 115.003C386.277 114.959 389.541 115.428 392.666 116.394C394.038 116.823 395.322 117.486 396.457 118.354C396.894 118.653 397.259 119.042 397.526 119.494C397.792 119.946 397.954 120.45 398 120.971C398 122.775 395.825 124.604 392.321 125.74C389.298 126.622 386.154 127.044 383 126.991V126.991ZM383 116.26C379.822 116.218 376.658 116.673 373.626 117.606C370.626 118.632 369.281 120.036 369.281 120.967C369.281 121.942 370.727 123.475 373.9 124.539C376.85 125.406 379.921 125.81 383 125.735C386.018 125.788 389.026 125.388 391.92 124.548C395.214 123.478 396.714 121.943 396.714 120.971C396.66 120.637 396.536 120.318 396.35 120.033C396.164 119.749 395.919 119.505 395.632 119.318C394.616 118.549 393.47 117.96 392.245 117.581C389.255 116.661 386.134 116.215 383 116.26V116.26Z" fill="#00D8FF"/>
<path d="M377.056 133.999C376.566 134.01 376.083 133.892 375.654 133.657C374.152 132.794 373.632 130.307 374.263 127.003C374.958 123.84 376.162 120.811 377.829 118.031C379.392 115.242 381.394 112.721 383.757 110.562C384.799 109.616 386.001 108.862 387.307 108.335C387.779 108.114 388.294 108 388.816 108C389.338 108 389.853 108.114 390.325 108.335C391.887 109.23 392.404 111.974 391.675 115.496C390.958 118.487 389.786 121.351 388.197 123.988C386.689 126.743 384.75 129.243 382.454 131.393C381.374 132.375 380.122 133.15 378.759 133.679C378.213 133.88 377.637 133.989 377.056 133.999V133.999ZM378.915 118.651C377.325 121.313 376.171 124.21 375.496 127.233C374.916 130.276 375.473 132.106 376.283 132.572C377.122 133.055 379.158 132.597 381.632 130.446C383.824 128.386 385.674 125.993 387.114 123.357C388.635 120.836 389.761 118.098 390.45 115.238C391.136 111.923 390.543 109.893 389.702 109.411C389.387 109.291 389.05 109.237 388.713 109.253C388.376 109.269 388.045 109.354 387.743 109.504C386.581 109.981 385.512 110.659 384.586 111.507C382.328 113.575 380.416 115.989 378.922 118.657L378.915 118.651Z" fill="#00D8FF"/>
<path d="M388.923 133.999C387.505 133.999 385.703 133.142 383.827 131.532C381.426 129.351 379.394 126.798 377.81 123.969C376.167 121.226 374.975 118.237 374.278 115.117C373.975 113.745 373.919 112.329 374.112 110.937C374.157 110.421 374.314 109.92 374.574 109.471C374.833 109.022 375.188 108.636 375.614 108.338C377.17 107.439 379.812 108.363 382.508 110.752C384.749 112.865 386.652 115.309 388.151 117.998C389.793 120.678 390.998 123.601 391.721 126.658C392.036 128.081 392.085 129.55 391.864 130.991C391.812 131.522 391.645 132.036 391.375 132.497C391.105 132.957 390.738 133.355 390.3 133.661C389.88 133.893 389.404 134.01 388.923 133.999V133.999ZM378.894 123.34C380.413 126.043 382.354 128.487 384.644 130.581C386.998 132.603 388.866 133.038 389.669 132.567C390.506 132.081 391.124 130.097 390.488 126.888C389.79 123.969 388.634 121.179 387.063 118.621C385.633 116.047 383.816 113.707 381.676 111.682C379.139 109.434 377.08 108.931 376.242 109.416C375.98 109.628 375.766 109.892 375.612 110.191C375.458 110.489 375.367 110.817 375.347 111.153C375.18 112.394 375.234 113.655 375.507 114.878C376.177 117.862 377.321 120.719 378.895 123.342L378.894 123.34Z" fill="#00D8FF"/>
<path d="M140.391 60.0801C140.391 60.0801 140.395 60.0801 140.404 60.0801C138.527 63.8717 137.501 65.9453 137.328 66.3008C135.514 69.9648 134.557 71.8971 134.457 72.0977L132.27 76.5137C132.206 76.4316 131.9 75.9577 131.354 75.0918C130.451 73.5059 130 71.8561 130 70.1426V70.0195C130 68.3789 130.415 66.7975 131.244 65.2754C132.347 63.3066 133.947 61.862 136.043 60.9414C136.38 60.8047 136.758 60.6725 137.178 60.5449C137.488 60.4538 137.875 60.3672 138.34 60.2852C138.659 60.2305 139.342 60.1621 140.391 60.0801ZM142.455 60.4492C143.458 60.7682 144.251 61.1009 144.834 61.4473C145.217 61.6569 145.641 61.9395 146.105 62.2949C146.342 62.4772 146.689 62.7917 147.145 63.2383C147.618 63.7669 147.969 64.2044 148.197 64.5508C148.562 65.1159 148.831 65.6081 149.004 66.0273C149.141 66.3281 149.268 66.6517 149.387 66.998C148.585 67.2624 148.111 67.4173 147.965 67.4629C147.81 67.0254 147.632 66.6016 147.432 66.1914C147.176 65.7083 146.826 65.1888 146.379 64.6328C145.978 64.1862 145.632 63.849 145.34 63.6211C144.893 63.2565 144.515 62.9876 144.205 62.8145C143.822 62.5957 143.49 62.4316 143.207 62.3223C143.143 62.4499 142.378 64.0085 140.91 66.998C138.96 70.9355 137.957 72.959 137.902 73.0684L135.77 77.4023C137.082 78.1315 138.472 78.4961 139.939 78.4961C141.653 78.4961 143.248 77.9993 144.725 77.0059C145.025 76.8053 145.399 76.4954 145.846 76.0762C146.247 75.666 146.534 75.3379 146.707 75.0918C146.926 74.8001 147.131 74.4857 147.322 74.1484C147.523 73.7839 147.696 73.4056 147.842 73.0137C147.842 73.0046 147.846 73 147.855 73C147.965 73.0365 148.43 73.2096 149.25 73.5195C149.095 73.9479 148.913 74.3581 148.703 74.75C148.439 75.2604 148.074 75.8073 147.609 76.3906C147.409 76.6185 147.158 76.8874 146.857 77.1973C146.347 77.6621 145.951 77.9902 145.668 78.1816C145.294 78.4368 144.939 78.651 144.602 78.8242C143.116 79.6081 141.58 80 139.994 80H139.871C138.285 80 136.749 79.6126 135.264 78.8379C134.917 78.6556 134.439 78.3548 133.828 77.9355C134.639 76.2949 135.71 74.1257 137.041 71.4277C138.992 67.472 139.994 65.444 140.049 65.3438C141.553 62.2904 142.355 60.6589 142.455 60.4492ZM131.504 70.0742C131.504 71.1862 131.723 72.2754 132.16 73.3418C132.27 73.1413 132.625 72.4212 133.227 71.1816C133.345 70.9629 134.307 69.026 136.111 65.3711C137.187 63.1927 137.752 62.0443 137.807 61.9258C137.314 62.0625 136.882 62.2129 136.508 62.377C134.566 63.2884 133.149 64.7012 132.256 66.6152C131.755 67.7363 131.504 68.8893 131.504 70.0742ZM152.025 60.1758H153.502C153.511 60.1758 153.516 60.1803 153.516 60.1895V65.877C153.516 65.877 155.288 66.679 158.834 68.2832L160.242 68.9258C164.326 67.0755 166.422 66.1276 166.531 66.082L166.969 65.877V60.1895C166.969 60.1803 166.973 60.1758 166.982 60.1758H168.459C168.468 60.1758 168.473 60.1803 168.473 60.1895V66.834C168.436 66.8613 167.689 67.2031 166.23 67.8594L160.639 70.3887C160.402 70.498 160.27 70.5573 160.242 70.5664C156.241 68.7526 154.208 67.832 154.145 67.8047L152.012 66.8477V60.1895C152.012 60.1803 152.016 60.1758 152.025 60.1758ZM152.025 68.7617C156.036 70.4023 158.059 71.2318 158.096 71.25C158.141 71.2682 158.857 71.5599 160.242 72.125C164.38 70.4297 166.536 69.5501 166.709 69.4863C166.718 69.4772 167.306 69.2357 168.473 68.7617V68.7754V79.9863C168.473 79.9954 168.468 80 168.459 80H166.982C166.973 80 166.969 79.9954 166.969 79.9863V70.9902C162.94 72.6309 160.921 73.4557 160.912 73.4648C160.839 73.4922 160.616 73.5833 160.242 73.7383C156.496 72.2161 154.536 71.4141 154.363 71.332C154.354 71.332 154.072 71.2181 153.516 70.9902V79.9863C153.516 79.9954 153.511 80 153.502 80H152.025C152.016 80 152.012 79.9954 152.012 79.9863V68.7754C152.012 68.7663 152.016 68.7617 152.025 68.7617ZM182.062 59.9844H182.076C182.076 60.0026 182.892 61.6751 184.523 65.002C186.319 68.6751 187.235 70.5482 187.271 70.6211C187.326 70.7214 188.21 72.5352 189.924 76.0625L191.852 80H184.168C184.159 80 184.077 79.8359 183.922 79.5078C183.867 79.4076 182.947 77.5299 181.16 73.875C179.428 70.3294 178.48 68.388 178.316 68.0508C178.307 68.0326 178.271 67.9642 178.207 67.8457C180.085 64.0176 181.064 62.0169 181.146 61.8438C181.146 61.8438 181.365 61.3971 181.803 60.5039C181.976 60.1667 182.062 59.9935 182.062 59.9844ZM182.062 63.2656C182.008 63.375 181.26 64.9017 179.82 67.8457C181.853 72.002 182.887 74.1211 182.924 74.2031L185.043 78.5234C185.052 78.5508 185.061 78.5645 185.07 78.5645H189.541V78.5508C187.536 74.4492 186.492 72.3118 186.41 72.1387C184.605 68.4564 183.658 66.5241 183.566 66.3418L182.062 63.2656ZM177.113 70.1152L179.369 74.709C179.46 74.8913 180.322 76.6549 181.953 80H181.939H172.287H172.273C174.069 76.3177 174.999 74.4173 175.062 74.2988L177.031 70.2656C177.077 70.1654 177.104 70.1152 177.113 70.1152ZM177.113 73.3965L174.652 78.4414C174.643 78.4505 174.62 78.4915 174.584 78.5645H179.643C177.965 75.1374 177.122 73.4147 177.113 73.3965ZM189.049 60.2305H205.428C205.437 60.2305 205.441 60.235 205.441 60.2441V67.0527C205.441 67.0618 205.437 67.0664 205.428 67.0664H203.965C203.956 67.0664 203.951 67.0618 203.951 67.0527V64.6055H197.99V79.9863C197.99 79.9954 197.986 80 197.977 80H196.5C196.5 80 196.5 79.9954 196.5 79.9863V64.6055H190.539V67.0527C190.539 67.0618 190.535 67.0664 190.525 67.0664H189.049C189.04 67.0664 189.035 67.0618 189.035 67.0527V60.2441C189.035 60.235 189.04 60.2305 189.049 60.2305ZM190.539 61.7207V63.1152H196.5V61.7207H190.539ZM197.99 61.7207V63.1152H203.951V61.7207H197.99ZM224.582 59.9844H224.596C224.596 60.0026 225.411 61.6751 227.043 65.002C228.839 68.6751 229.755 70.5482 229.791 70.6211C229.846 70.7214 230.73 72.5352 232.443 76.0625L234.371 80H226.688C226.678 80 226.596 79.8359 226.441 79.5078C226.387 79.4076 225.466 77.5299 223.68 73.875C221.948 70.3294 221 68.388 220.836 68.0508C220.827 68.0326 220.79 67.9642 220.727 67.8457C222.604 64.0176 223.584 62.0169 223.666 61.8438C223.666 61.8438 223.885 61.3971 224.322 60.5039C224.495 60.1667 224.582 59.9935 224.582 59.9844ZM224.582 63.2656C224.527 63.375 223.78 64.9017 222.34 67.8457C224.372 72.002 225.407 74.1211 225.443 74.2031L227.562 78.5234C227.572 78.5508 227.581 78.5645 227.59 78.5645H232.061V78.5508C230.055 74.4492 229.012 72.3118 228.93 72.1387C227.125 68.4564 226.177 66.5241 226.086 66.3418L224.582 63.2656ZM219.633 70.1152L221.889 74.709C221.98 74.8913 222.841 76.6549 224.473 80H224.459H214.807H214.793C216.589 76.3177 217.518 74.4173 217.582 74.2988L219.551 70.2656C219.596 70.1654 219.624 70.1152 219.633 70.1152ZM219.633 73.3965L217.172 78.4414C217.163 78.4505 217.14 78.4915 217.104 78.5645H222.162C220.485 75.1374 219.642 73.4147 219.633 73.3965ZM235.861 60.2715H245.322C246.617 60.2715 247.852 60.6406 249.027 61.3789C249.292 61.5521 249.588 61.7845 249.916 62.0762C250.29 62.4316 250.518 62.6732 250.6 62.8008C250.809 63.056 251.001 63.3249 251.174 63.6074C251.83 64.7285 252.158 65.8997 252.158 67.1211V67.2031C252.158 68.2969 251.885 69.3542 251.338 70.375C251.192 70.6484 251.001 70.9447 250.764 71.2637C250.627 71.446 250.39 71.7057 250.053 72.043C248.731 73.2643 247.168 73.875 245.363 73.875H237.338V79.9863C237.338 79.9954 237.333 80 237.324 80H235.861C235.852 80 235.848 79.9954 235.848 79.9863V60.2852C235.848 60.276 235.852 60.2715 235.861 60.2715ZM237.338 61.7617V72.3848H245.363C246.84 72.3848 248.107 71.8698 249.164 70.8398C249.474 70.5026 249.706 70.2109 249.861 69.9648C250.408 69.0898 250.682 68.1556 250.682 67.1621C250.682 65.8952 250.262 64.7422 249.424 63.7031C249.15 63.3932 248.895 63.1426 248.658 62.9512C248.257 62.6504 247.906 62.4316 247.605 62.2949C246.858 61.9395 246.088 61.7617 245.295 61.7617H237.338ZM244.01 66.1094C244.32 66.1094 244.579 66.2461 244.789 66.5195C244.908 66.6927 244.967 66.8704 244.967 67.0527V67.0801C244.967 67.4173 244.807 67.6908 244.488 67.9004C244.333 67.9824 244.178 68.0234 244.023 68.0234H243.996C243.659 68.0234 243.385 67.8685 243.176 67.5586C243.085 67.3945 243.039 67.235 243.039 67.0801V67.0527C243.039 66.752 243.176 66.4967 243.449 66.2871C243.622 66.1686 243.809 66.1094 244.01 66.1094ZM255.193 60.2715H264.654C265.949 60.2715 267.184 60.6406 268.359 61.3789C268.624 61.5521 268.92 61.7845 269.248 62.0762C269.622 62.4316 269.85 62.6732 269.932 62.8008C270.141 63.056 270.333 63.3249 270.506 63.6074C271.162 64.7285 271.49 65.8997 271.49 67.1211V67.2031C271.49 68.2969 271.217 69.3542 270.67 70.375C270.524 70.6484 270.333 70.9447 270.096 71.2637C269.959 71.446 269.722 71.7057 269.385 72.043C268.063 73.2643 266.5 73.875 264.695 73.875H256.67V79.9863C256.67 79.9954 256.665 80 256.656 80H255.193C255.184 80 255.18 79.9954 255.18 79.9863V60.2852C255.18 60.276 255.184 60.2715 255.193 60.2715ZM256.67 61.7617V72.3848H264.695C266.172 72.3848 267.439 71.8698 268.496 70.8398C268.806 70.5026 269.038 70.2109 269.193 69.9648C269.74 69.0898 270.014 68.1556 270.014 67.1621C270.014 65.8952 269.594 64.7422 268.756 63.7031C268.482 63.3932 268.227 63.1426 267.99 62.9512C267.589 62.6504 267.238 62.4316 266.938 62.2949C266.19 61.9395 265.42 61.7617 264.627 61.7617H256.67ZM263.342 66.1094C263.652 66.1094 263.911 66.2461 264.121 66.5195C264.24 66.6927 264.299 66.8704 264.299 67.0527V67.0801C264.299 67.4173 264.139 67.6908 263.82 67.9004C263.665 67.9824 263.51 68.0234 263.355 68.0234H263.328C262.991 68.0234 262.717 67.8685 262.508 67.5586C262.417 67.3945 262.371 67.235 262.371 67.0801V67.0527C262.371 66.752 262.508 66.4967 262.781 66.2871C262.954 66.1686 263.141 66.1094 263.342 66.1094ZM288.525 60.2715H289.209C290.12 60.2715 290.964 60.5677 291.738 61.1602C292.021 61.4062 292.235 61.625 292.381 61.8164C292.864 62.4818 293.105 63.1836 293.105 63.9219V63.9355C293.105 63.9447 293.101 63.9492 293.092 63.9492H291.615C291.606 63.9492 291.602 63.9447 291.602 63.9355V63.9082C291.602 63.4525 291.428 63.0195 291.082 62.6094C290.845 62.3633 290.672 62.2129 290.562 62.1582C290.152 61.8939 289.646 61.7617 289.045 61.7617H288.689C288.006 61.7617 287.441 61.944 286.994 62.3086C286.821 62.4453 286.689 62.5775 286.598 62.7051C286.324 63.0788 286.188 63.4753 286.188 63.8945C286.188 64.4961 286.411 65.0339 286.857 65.5078C287.122 65.763 287.368 65.9408 287.596 66.041C288.015 66.2415 288.434 66.3418 288.854 66.3418H289.305C290.28 66.3418 291.114 66.4603 291.807 66.6973C292.135 66.7975 292.449 66.9206 292.75 67.0664C293.124 67.2396 293.516 67.4674 293.926 67.75C294.154 67.9141 294.45 68.1693 294.814 68.5156C295.215 68.944 295.489 69.2812 295.635 69.5273C295.954 69.9922 296.214 70.5299 296.414 71.1406C296.596 71.7604 296.688 72.362 296.688 72.9453V73.2324C296.688 74.5723 296.264 75.8346 295.416 77.0195C295.261 77.2383 295.029 77.5072 294.719 77.8262C294.263 78.2546 293.921 78.5371 293.693 78.6738C293.174 79.0475 292.549 79.3574 291.82 79.6035C291 79.8678 290.193 80 289.4 80H288.635C287.24 80 285.923 79.6263 284.684 78.8789C284.346 78.6784 283.964 78.3867 283.535 78.0039C283.171 77.6393 282.943 77.3887 282.852 77.252C282.551 76.8691 282.332 76.541 282.195 76.2676C281.703 75.3197 281.457 74.349 281.457 73.3555V73.3145C281.457 73.3053 281.462 73.3008 281.471 73.3008H282.934C282.943 73.3008 282.947 73.3053 282.947 73.3145V73.3555C282.947 74.3398 283.266 75.2832 283.904 76.1855C284.041 76.377 284.246 76.6094 284.52 76.8828C284.921 77.2383 285.23 77.4753 285.449 77.5938C285.75 77.7852 286.092 77.9583 286.475 78.1133C287.149 78.3776 287.942 78.5098 288.854 78.5098H289.168C290.089 78.5098 290.882 78.3776 291.547 78.1133C291.857 78.0039 292.139 77.8763 292.395 77.7305C292.677 77.5846 293.033 77.334 293.461 76.9785C293.734 76.7142 293.939 76.4954 294.076 76.3223C294.824 75.3561 295.197 74.3307 295.197 73.2461V72.9453C295.197 71.9336 294.86 70.972 294.186 70.0605C294.085 69.9147 293.876 69.6868 293.557 69.377C293.01 68.8848 292.422 68.5156 291.793 68.2695C291.073 67.987 290.307 67.8457 289.496 67.8457H288.936C287.742 67.8457 286.712 67.431 285.846 66.6016C285.071 65.8086 284.684 64.9062 284.684 63.8945C284.684 63.0013 285.016 62.1947 285.682 61.4746C285.973 61.1921 286.229 60.987 286.447 60.8594C287.113 60.4674 287.805 60.2715 288.525 60.2715ZM289.086 71.7969C289.396 71.7969 289.656 71.9336 289.865 72.207C289.984 72.3802 290.043 72.5579 290.043 72.7402V72.8086C290.043 73.0638 289.929 73.2962 289.701 73.5059C289.51 73.6517 289.314 73.7246 289.113 73.7246H289.045C288.753 73.7246 288.503 73.597 288.293 73.3418C288.174 73.1595 288.115 72.9818 288.115 72.8086V72.7402C288.115 72.4668 288.229 72.2253 288.457 72.0156C288.648 71.8698 288.858 71.7969 289.086 71.7969ZM309.43 60.2578C309.43 60.2669 308.696 61.748 307.229 64.7012C307.156 64.8561 306.303 66.5833 304.672 69.8828C302.986 73.2917 302.056 75.1647 301.883 75.502C301.682 75.9395 301.509 76.2858 301.363 76.541C300.816 75.6934 300.465 75.1328 300.311 74.8594C299.518 73.3737 299.121 71.8288 299.121 70.2246V70.1289C299.121 68.3333 299.604 66.6335 300.57 65.0293C300.798 64.6465 301.113 64.2181 301.514 63.7441C301.814 63.3887 302.174 63.0286 302.594 62.6641C303.633 61.8073 304.749 61.1875 305.943 60.8047C306.29 60.6862 306.745 60.5768 307.311 60.4766C307.593 60.4128 308.299 60.3398 309.43 60.2578ZM311.467 60.627C312.415 60.9186 313.167 61.2285 313.723 61.5566C314.06 61.7298 314.429 61.9668 314.83 62.2676C315.104 62.4499 315.432 62.7279 315.814 63.1016C316.298 63.5846 316.612 63.931 316.758 64.1406C317.132 64.6419 317.405 65.0566 317.578 65.3848C317.815 65.7949 318.038 66.2917 318.248 66.875C318.631 67.9505 318.822 69.026 318.822 70.1016V70.2246C318.822 71.8835 318.394 73.4785 317.537 75.0098C317.309 75.4199 316.999 75.8711 316.607 76.3633C316.143 76.9284 315.655 77.416 315.145 77.8262C314.762 78.127 314.424 78.3639 314.133 78.5371C312.51 79.5124 310.811 80 309.033 80H308.896C307.238 80 305.638 79.5762 304.098 78.7285C303.824 78.5645 303.432 78.3092 302.922 77.9629V77.9492C303.214 77.3568 304.23 75.2923 305.971 71.7559C307.994 67.6634 309.01 65.6035 309.02 65.5762C309.156 65.3118 309.949 63.7031 311.398 60.75C311.435 60.668 311.458 60.627 311.467 60.627ZM300.611 70.1562V70.1836C300.611 71.2773 300.826 72.3529 301.254 73.4102C301.309 73.319 302.257 71.4141 304.098 67.6953C305.757 64.332 306.677 62.4681 306.859 62.1035V62.0898C306.54 62.1719 306.226 62.2721 305.916 62.3906C304.029 63.1654 302.589 64.4505 301.596 66.2461C300.939 67.4948 300.611 68.7982 300.611 70.1562ZM312.219 62.4727C310.688 65.5716 309.457 68.0645 308.527 69.9512C306.422 74.2259 305.296 76.5091 305.15 76.8008L304.836 77.4297C305.046 77.5482 305.328 77.6895 305.684 77.8535C306.759 78.291 307.821 78.5098 308.869 78.5098H309.088C310.264 78.5098 311.449 78.2272 312.643 77.6621C313.071 77.4525 313.531 77.1699 314.023 76.8145C314.27 76.623 314.529 76.3952 314.803 76.1309C315.158 75.7754 315.409 75.502 315.555 75.3105C315.901 74.8457 316.152 74.4629 316.307 74.1621C316.99 72.9134 317.332 71.5872 317.332 70.1836V70.1426C317.332 68.4017 316.808 66.7839 315.76 65.2891C315.577 65.0247 315.309 64.7057 314.953 64.332C314.561 63.9401 314.242 63.6621 313.996 63.498C313.54 63.1608 313.107 62.8919 312.697 62.6914C312.469 62.582 312.31 62.5091 312.219 62.4727ZM330.484 60.0801C330.484 60.0801 330.489 60.0801 330.498 60.0801C328.62 63.8717 327.595 65.9453 327.422 66.3008C325.608 69.9648 324.651 71.8971 324.551 72.0977L322.363 76.5137C322.299 76.4316 321.994 75.9577 321.447 75.0918C320.545 73.5059 320.094 71.8561 320.094 70.1426V70.0195C320.094 68.3789 320.508 66.7975 321.338 65.2754C322.441 63.3066 324.04 61.862 326.137 60.9414C326.474 60.8047 326.852 60.6725 327.271 60.5449C327.581 60.4538 327.969 60.3672 328.434 60.2852C328.753 60.2305 329.436 60.1621 330.484 60.0801ZM332.549 60.4492C333.551 60.7682 334.344 61.1009 334.928 61.4473C335.311 61.6569 335.734 61.9395 336.199 62.2949C336.436 62.4772 336.783 62.7917 337.238 63.2383C337.712 63.7669 338.063 64.2044 338.291 64.5508C338.656 65.1159 338.924 65.6081 339.098 66.0273C339.234 66.3281 339.362 66.6517 339.48 66.998C338.678 67.2624 338.204 67.4173 338.059 67.4629C337.904 67.0254 337.726 66.6016 337.525 66.1914C337.27 65.7083 336.919 65.1888 336.473 64.6328C336.072 64.1862 335.725 63.849 335.434 63.6211C334.987 63.2565 334.609 62.9876 334.299 62.8145C333.916 62.5957 333.583 62.4316 333.301 62.3223C333.237 62.4499 332.471 64.0085 331.004 66.998C329.053 70.9355 328.051 72.959 327.996 73.0684L325.863 77.4023C327.176 78.1315 328.566 78.4961 330.033 78.4961C331.747 78.4961 333.342 77.9993 334.818 77.0059C335.119 76.8053 335.493 76.4954 335.939 76.0762C336.34 75.666 336.628 75.3379 336.801 75.0918C337.02 74.8001 337.225 74.4857 337.416 74.1484C337.617 73.7839 337.79 73.4056 337.936 73.0137C337.936 73.0046 337.94 73 337.949 73C338.059 73.0365 338.523 73.2096 339.344 73.5195C339.189 73.9479 339.007 74.3581 338.797 74.75C338.533 75.2604 338.168 75.8073 337.703 76.3906C337.503 76.6185 337.252 76.8874 336.951 77.1973C336.441 77.6621 336.044 77.9902 335.762 78.1816C335.388 78.4368 335.033 78.651 334.695 78.8242C333.21 79.6081 331.674 80 330.088 80H329.965C328.379 80 326.843 79.6126 325.357 78.8379C325.011 78.6556 324.533 78.3548 323.922 77.9355C324.733 76.2949 325.804 74.1257 327.135 71.4277C329.085 67.472 330.088 65.444 330.143 65.3438C331.646 62.2904 332.449 60.6589 332.549 60.4492ZM321.598 70.0742C321.598 71.1862 321.816 72.2754 322.254 73.3418C322.363 73.1413 322.719 72.4212 323.32 71.1816C323.439 70.9629 324.4 69.026 326.205 65.3711C327.281 63.1927 327.846 62.0443 327.9 61.9258C327.408 62.0625 326.975 62.2129 326.602 62.377C324.66 63.2884 323.243 64.7012 322.35 66.6152C321.848 67.7363 321.598 68.8893 321.598 70.0742ZM342.857 60.2715H344.334C344.343 60.2715 344.348 60.276 344.348 60.2852V66.6016C344.357 66.6016 345.086 66.1549 346.535 65.2617V60.2852C346.535 60.276 346.54 60.2715 346.549 60.2715H348.025C348.035 60.2715 348.039 60.276 348.039 60.2852V64.3457C351.931 61.9577 354.018 60.6771 354.301 60.5039C354.547 60.349 354.679 60.2715 354.697 60.2715H357.582V60.2852C357.536 60.3125 355.846 61.3424 352.51 63.375C349.584 65.1615 348.094 66.0684 348.039 66.0957V74.1758L352.893 77.1289C355.344 78.6237 356.908 79.5762 357.582 79.9863V80H354.697C354.643 79.9818 354.401 79.8359 353.973 79.5625C353.863 79.4987 352.355 78.5781 349.447 76.8008L348.039 75.9258V79.9863C348.039 79.9954 348.035 80 348.025 80H346.549C346.54 80 346.535 79.9954 346.535 79.9863V75.0098C346.49 74.9733 346.134 74.7546 345.469 74.3535C344.758 73.916 344.384 73.6882 344.348 73.6699V79.9863C344.348 79.9954 344.343 80 344.334 80H342.857C342.848 80 342.844 79.9954 342.844 79.9863V72.7539C342.753 72.681 341.363 71.8242 338.674 70.1836C338.628 70.1562 338.605 70.138 338.605 70.1289C338.751 70.0378 340.105 69.2083 342.666 67.6406C342.785 67.5677 342.844 67.5267 342.844 67.5176V60.2852C342.853 60.276 342.857 60.2715 342.857 60.2715ZM344.348 68.3789V71.8926C344.493 71.9928 345.223 72.444 346.535 73.2461V67.0254H346.521C345.163 67.8639 344.439 68.3151 344.348 68.3789ZM341.463 70.1289V70.1426C341.518 70.1699 341.978 70.4525 342.844 70.9902V69.2812C341.978 69.819 341.518 70.1016 341.463 70.1289ZM360.863 60.2715H377.57C377.579 60.2715 377.584 60.276 377.584 60.2852V61.748C377.584 61.7572 377.579 61.7617 377.57 61.7617H364.486C367.13 64.3776 368.647 65.877 369.039 66.2598C369.039 66.2598 369.066 66.2871 369.121 66.3418H377.57C377.579 66.3509 377.584 66.3555 377.584 66.3555V67.832C377.584 67.8411 377.579 67.8457 377.57 67.8457H368.15C366.965 67.8457 365.904 68.2604 364.965 69.0898C364.655 69.3906 364.45 69.6185 364.35 69.7734C363.73 70.6302 363.42 71.5645 363.42 72.5762V72.5898C363.42 73.9661 363.871 75.224 364.773 76.3633C364.91 76.5273 365.102 76.7233 365.348 76.9512C366.514 77.9902 367.863 78.5098 369.395 78.5098H377.57C377.579 78.5098 377.584 78.5143 377.584 78.5234V79.9863C377.584 79.9954 377.579 80 377.57 80H369.312C367.818 80 366.419 79.5579 365.115 78.6738C364.869 78.5189 364.541 78.2454 364.131 77.8535C363.702 77.4069 363.42 77.0697 363.283 76.8418C362.992 76.4499 362.736 75.9987 362.518 75.4883C362.117 74.5404 361.916 73.5697 361.916 72.5762C361.916 71.1725 362.363 69.8919 363.256 68.7344C363.374 68.5794 363.593 68.3424 363.912 68.0234C364.277 67.6953 364.623 67.4355 364.951 67.2441C365.298 67.0436 365.639 66.875 365.977 66.7383C366.223 66.6471 366.533 66.5605 366.906 66.4785C366.997 66.4603 367.061 66.4512 367.098 66.4512C366.861 66.2142 365.721 65.0885 363.68 63.0742L360.863 60.2715ZM370.857 72.207C371.167 72.207 371.432 72.3483 371.65 72.6309C371.76 72.804 371.814 72.9727 371.814 73.1367V73.2188C371.814 73.4648 371.701 73.6927 371.473 73.9023C371.29 74.0573 371.094 74.1348 370.885 74.1348H370.803C370.557 74.1348 370.324 74.0208 370.105 73.793C369.96 73.6107 369.887 73.4147 369.887 73.2051V73.1504C369.887 72.8587 370.019 72.6035 370.283 72.3848C370.465 72.2663 370.657 72.207 370.857 72.207ZM380.619 60.2305H396.998C397.007 60.2305 397.012 60.235 397.012 60.2441V67.0527C397.012 67.0618 397.007 67.0664 396.998 67.0664H395.535C395.526 67.0664 395.521 67.0618 395.521 67.0527V64.6055H389.561V79.9863C389.561 79.9954 389.556 80 389.547 80H388.07C388.07 80 388.07 79.9954 388.07 79.9863V64.6055H382.109V67.0527C382.109 67.0618 382.105 67.0664 382.096 67.0664H380.619C380.61 67.0664 380.605 67.0618 380.605 67.0527V60.2441C380.605 60.235 380.61 60.2305 380.619 60.2305ZM382.109 61.7207V63.1152H388.07V61.7207H382.109ZM389.561 61.7207V63.1152H395.521V61.7207H389.561ZM402.822 78.127C403.123 78.127 403.374 78.2546 403.574 78.5098C403.693 78.6738 403.752 78.8516 403.752 79.043V79.0566C403.752 79.403 403.592 79.6719 403.273 79.8633C403.137 79.9453 402.995 79.9863 402.85 79.9863H402.795C402.476 79.9863 402.212 79.8314 402.002 79.5215C401.929 79.3665 401.893 79.2116 401.893 79.0566V79.043C401.893 78.724 402.043 78.4596 402.344 78.25C402.499 78.168 402.658 78.127 402.822 78.127ZM407.061 60.2852H412.98C412.99 60.2852 412.994 60.2897 412.994 60.2988V61.7617C412.994 61.7708 412.99 61.7754 412.98 61.7754H410.766V69.2539H412.98C412.99 69.2539 412.994 69.2585 412.994 69.2676V70.7441C412.994 70.7441 412.99 70.7441 412.98 70.7441H410.766V78.5098H412.98C412.99 78.5098 412.994 78.5143 412.994 78.5234V79.9863C412.994 79.9954 412.99 80 412.98 80H407.061C407.051 80 407.047 79.9954 407.047 79.9863V78.5234C407.047 78.5143 407.051 78.5098 407.061 78.5098H409.275V70.7441H407.061C407.051 70.7441 407.047 70.7441 407.047 70.7441V69.2676C407.047 69.2585 407.051 69.2539 407.061 69.2539H409.275V61.7754H407.061C407.051 61.7754 407.047 61.7708 407.047 61.7617V60.2988C407.047 60.2897 407.051 60.2852 407.061 60.2852ZM426.352 60.2578C426.352 60.2669 425.618 61.748 424.15 64.7012C424.077 64.8561 423.225 66.5833 421.594 69.8828C419.908 73.2917 418.978 75.1647 418.805 75.502C418.604 75.9395 418.431 76.2858 418.285 76.541C417.738 75.6934 417.387 75.1328 417.232 74.8594C416.439 73.3737 416.043 71.8288 416.043 70.2246V70.1289C416.043 68.3333 416.526 66.6335 417.492 65.0293C417.72 64.6465 418.035 64.2181 418.436 63.7441C418.736 63.3887 419.096 63.0286 419.516 62.6641C420.555 61.8073 421.671 61.1875 422.865 60.8047C423.212 60.6862 423.667 60.5768 424.232 60.4766C424.515 60.4128 425.221 60.3398 426.352 60.2578ZM428.389 60.627C429.337 60.9186 430.089 61.2285 430.645 61.5566C430.982 61.7298 431.351 61.9668 431.752 62.2676C432.025 62.4499 432.354 62.7279 432.736 63.1016C433.219 63.5846 433.534 63.931 433.68 64.1406C434.053 64.6419 434.327 65.0566 434.5 65.3848C434.737 65.7949 434.96 66.2917 435.17 66.875C435.553 67.9505 435.744 69.026 435.744 70.1016V70.2246C435.744 71.8835 435.316 73.4785 434.459 75.0098C434.231 75.4199 433.921 75.8711 433.529 76.3633C433.064 76.9284 432.577 77.416 432.066 77.8262C431.684 78.127 431.346 78.3639 431.055 78.5371C429.432 79.5124 427.732 80 425.955 80H425.818C424.16 80 422.56 79.5762 421.02 78.7285C420.746 78.5645 420.354 78.3092 419.844 77.9629V77.9492C420.135 77.3568 421.152 75.2923 422.893 71.7559C424.916 67.6634 425.932 65.6035 425.941 65.5762C426.078 65.3118 426.871 63.7031 428.32 60.75C428.357 60.668 428.38 60.627 428.389 60.627ZM417.533 70.1562V70.1836C417.533 71.2773 417.747 72.3529 418.176 73.4102C418.23 73.319 419.178 71.4141 421.02 67.6953C422.678 64.332 423.599 62.4681 423.781 62.1035V62.0898C423.462 62.1719 423.148 62.2721 422.838 62.3906C420.951 63.1654 419.511 64.4505 418.518 66.2461C417.861 67.4948 417.533 68.7982 417.533 70.1562ZM429.141 62.4727C427.609 65.5716 426.379 68.0645 425.449 69.9512C423.344 74.2259 422.218 76.5091 422.072 76.8008L421.758 77.4297C421.967 77.5482 422.25 77.6895 422.605 77.8535C423.681 78.291 424.743 78.5098 425.791 78.5098H426.01C427.186 78.5098 428.37 78.2272 429.564 77.6621C429.993 77.4525 430.453 77.1699 430.945 76.8145C431.191 76.623 431.451 76.3952 431.725 76.1309C432.08 75.7754 432.331 75.502 432.477 75.3105C432.823 74.8457 433.074 74.4629 433.229 74.1621C433.912 72.9134 434.254 71.5872 434.254 70.1836V70.1426C434.254 68.4017 433.73 66.7839 432.682 65.2891C432.499 65.0247 432.23 64.7057 431.875 64.332C431.483 63.9401 431.164 63.6621 430.918 63.498C430.462 63.1608 430.029 62.8919 429.619 62.6914C429.391 62.582 429.232 62.5091 429.141 62.4727Z" fill="white"/>
<defs>
<filter id="filter0_i_1_2" x="214" y="104" width="10" height="27" filterUnits="userSpaceOnUse" color-interpolation-filters="sRGB">
<feFlood flood-opacity="0" result="BackgroundImageFix"/>
<feBlend mode="normal" in="SourceGraphic" in2="BackgroundImageFix" result="shape"/>
<feColorMatrix in="SourceAlpha" type="matrix" values="0 0 0 0 0 0 0 0 0 0 0 0 0 0 0 0 0 0 127 0" result="hardAlpha"/>
<feOffset/>
<feGaussianBlur stdDeviation="1.69516"/>
<feComposite in2="hardAlpha" operator="arithmetic" k2="-1" k3="1"/>
<feColorMatrix type="matrix" values="0 0 0 0 0 0 0 0 0 0 0 0 0 0 0 0 0 0 0.06 0"/>
<feBlend mode="normal" in2="shape" result="effect1_innerShadow_1_2"/>
</filter>
<filter id="filter1_i_1_2" x="224" y="108.322" width="6.09687" height="10.6781" filterUnits="userSpaceOnUse" color-interpolation-filters="sRGB">
<feFlood flood-opacity="0" result="BackgroundImageFix"/>
<feBlend mode="normal" in="SourceGraphic" in2="BackgroundImageFix" result="shape"/>
<feColorMatrix in="SourceAlpha" type="matrix" values="0 0 0 0 0 0 0 0 0 0 0 0 0 0 0 0 0 0 127 0" result="hardAlpha"/>
<feOffset dx="0.0968661" dy="-0.871795"/>
<feGaussianBlur stdDeviation="0.339031"/>
<feComposite in2="hardAlpha" operator="arithmetic" k2="-1" k3="1"/>
<feColorMatrix type="matrix" values="0 0 0 0 0 0 0 0 0 0 0 0 0 0 0 0 0 0 0.09 0"/>
<feBlend mode="normal" in2="shape" result="effect1_innerShadow_1_2"/>
</filter>
<linearGradient id="paint0_linear_1_2" x1="0" y1="110" x2="570" y2="110" gradientUnits="userSpaceOnUse">
<stop stop-color="#FC6767"/>
<stop offset="0.9999" stop-color="#FF0651"/>
<stop offset="1" stop-color="#FB2659"/>
</linearGradient>
<linearGradient id="paint1_linear_1_2" x1="272.094" y1="121.398" x2="281.326" y2="124.558" gradientUnits="userSpaceOnUse">
<stop offset="0.231" stop-color="#999875"/>
<stop offset="0.563" stop-color="#9B9977"/>
<stop offset="0.683" stop-color="#A09F7E"/>
<stop offset="0.768" stop-color="#A9A889"/>
<stop offset="0.837" stop-color="#B7B69A"/>
<stop offset="0.896" stop-color="#C9C7B0"/>
<stop offset="0.948" stop-color="#DEDDCB"/>
<stop offset="0.994" stop-color="#F8F6EB"/>
<stop offset="1" stop-color="#FBF9EF"/>
</linearGradient>
<linearGradient id="paint2_linear_1_2" x1="275.759" y1="105.862" x2="279.785" y2="131.425" gradientUnits="userSpaceOnUse">
<stop stop-color="#48A547"/>
<stop offset="1" stop-color="#3F9143"/>
</linearGradient>
<linearGradient id="paint3_linear_1_2" x1="269.452" y1="120.556" x2="280.399" y2="116.843" gradientUnits="userSpaceOnUse">
<stop stop-color="#41A247"/>
<stop offset="0.352" stop-color="#4BA74B"/>
<stop offset="0.956" stop-color="#67B554"/>
<stop offset="1" stop-color="#69B655"/>
</linearGradient>
<clipPath id="clip0_1_2">
<rect width="25" height="34" fill="white" transform="translate(214 104)"/>
</clipPath>
<clipPath id="clip1_1_2">
<rect width="30" height="34" fill="white" transform="translate(315 104)"/>
</clipPath>
</defs>
</svg>
