<svg width="250" height="150" viewBox="0 0 250 150" fill="none" xmlns="http://www.w3.org/2000/svg">
<g clip-path="url(#clip0_1_2)">
<rect width="250" height="150" fill="url(#paint0_linear_1_2)"/>
<path d="M179 93C180.105 93 181 92.1046 181 91C181 89.8954 180.105 89 179 89C177.895 89 177 89.8954 177 91C177 92.1046 177.895 93 179 93Z" fill="#00D8FF"/>
<path d="M179 94.9935C176.639 95.0507 174.284 94.7316 172.023 94.0481C170.978 93.7161 170.004 93.1932 169.15 92.5057C168.823 92.2708 168.552 91.968 168.353 91.6179C168.155 91.2679 168.034 90.879 168 90.4779C168 89.1757 169.427 87.8995 171.817 87.0645C174.139 86.3245 176.564 85.9659 179 86.0025C181.403 85.9689 183.796 86.321 186.089 87.0456C187.095 87.3671 188.036 87.8648 188.869 88.5156C189.189 88.7395 189.457 89.0313 189.652 89.3705C189.848 89.7096 189.966 90.0877 190 90.4779C190 91.8313 188.405 93.2028 185.836 94.0552C183.618 94.7165 181.313 95.0329 179 94.9935V94.9935ZM179 86.9447C176.67 86.9135 174.349 87.2544 172.126 87.9547C169.926 88.7243 168.94 89.7768 168.94 90.4756C168.94 91.2066 170 92.356 172.327 93.154C174.49 93.8046 176.742 94.1074 179 94.0513C181.213 94.091 183.419 93.7907 185.541 93.1611C187.957 92.3583 189.057 91.2074 189.057 90.4779C189.017 90.2276 188.927 89.9882 188.79 89.7749C188.653 89.5616 188.474 89.3791 188.264 89.2387C187.519 88.6614 186.678 88.2203 185.78 87.9358C183.587 87.2455 181.298 86.9109 179 86.9447V86.9447Z" fill="#00D8FF"/>
<path d="M174.207 99.9995C173.853 100.008 173.504 99.9213 173.195 99.7492C172.11 99.119 171.734 97.3016 172.19 94.8867C172.692 92.5757 173.561 90.3617 174.765 88.3304C175.894 86.2925 177.34 84.4498 179.047 82.872C179.799 82.1812 180.667 81.6302 181.61 81.2445C181.951 81.0835 182.324 81 182.7 81C183.077 81 183.449 81.0835 183.79 81.2445C184.918 81.8992 185.292 83.9043 184.765 86.4778C184.248 88.6635 183.401 90.7562 182.253 92.6832C181.164 94.697 179.764 96.5237 178.106 98.0951C177.326 98.8129 176.421 99.3791 175.437 99.7652C175.043 99.9125 174.627 99.9917 174.207 99.9995V99.9995ZM175.55 88.7836C174.402 90.7287 173.568 92.8455 173.08 95.0546C172.662 97.2787 173.064 98.6162 173.649 98.9565C174.255 99.3097 175.726 98.9748 177.512 97.403C179.095 95.8976 180.431 94.149 181.471 92.2224C182.57 90.3801 183.383 88.3793 183.881 86.2894C184.376 83.8669 183.948 82.3837 183.34 82.0312C183.113 81.9433 182.869 81.9039 182.626 81.9156C182.382 81.9273 182.144 81.9898 181.925 82.0991C181.086 82.448 180.314 82.9434 179.645 83.5625C178.014 85.0738 176.634 86.8379 175.555 88.7882L175.55 88.7836Z" fill="#00D8FF"/>
<path d="M182.778 99.9995C181.754 99.9995 180.452 99.3733 179.097 98.1965C177.363 96.603 175.896 94.7367 174.752 92.67C173.565 90.6649 172.704 88.481 172.201 86.2011C171.982 85.198 171.942 84.1638 172.081 83.1465C172.113 82.7691 172.227 82.4034 172.414 82.0753C172.602 81.7471 172.858 81.4645 173.165 81.2473C174.29 80.5898 176.197 81.2656 178.144 83.0113C179.763 84.5556 181.138 86.3414 182.22 88.3065C183.406 90.2647 184.276 92.4008 184.798 94.6348C185.026 95.6747 185.061 96.7482 184.902 97.8009C184.864 98.1892 184.744 98.5646 184.549 98.9013C184.354 99.2381 184.089 99.5283 183.772 99.7521C183.469 99.9221 183.125 100.008 182.778 99.9995V99.9995ZM175.534 92.2102C176.632 94.1854 178.034 95.9715 179.687 97.5016C181.388 98.9792 182.736 99.2969 183.316 98.9525C183.921 98.5974 184.367 97.148 183.908 94.8028C183.404 92.6699 182.569 90.6309 181.434 88.7616C180.401 86.8808 179.089 85.1708 177.544 83.691C175.711 82.0476 174.225 81.6803 173.619 82.0346C173.43 82.1895 173.275 82.3823 173.164 82.6008C173.053 82.8192 172.988 83.0586 172.973 83.3038C172.852 84.2111 172.891 85.1327 173.088 86.0262C173.572 88.2065 174.398 90.2947 175.535 92.2118L175.534 92.2102Z" fill="#00D8FF"/>
<g clip-path="url(#clip1_1_2)">
<path d="M147 103C146.658 103 146.34 102.908 146.044 102.747L143.014 100.933C142.559 100.68 142.787 100.588 142.923 100.542C143.538 100.336 143.652 100.29 144.29 99.9222C144.358 99.8763 144.449 99.8993 144.518 99.9452L146.841 101.346C146.932 101.392 147.046 101.392 147.114 101.346L156.201 96.0408C156.292 95.9949 156.338 95.903 156.338 95.7882V85.2001C156.338 85.0853 156.292 84.9935 156.201 84.9475L147.114 79.665C147.023 79.619 146.909 79.619 146.841 79.665L137.754 84.9476C137.662 84.9935 137.617 85.1084 137.617 85.2002V95.7882C137.617 95.8801 137.662 95.9949 137.754 96.0408L140.236 97.4877C141.58 98.1767 142.422 97.3729 142.422 96.5691V86.1188C142.422 85.981 142.536 85.8432 142.696 85.8432H143.857C143.994 85.8432 144.13 85.958 144.13 86.1188V96.569C144.13 98.3834 143.151 99.4399 141.443 99.4399C140.919 99.4399 140.509 99.4399 139.348 98.8657L136.956 97.4877C136.364 97.1431 136 96.5001 136 95.8111V85.2232C136 84.5342 136.364 83.8911 136.956 83.5466L146.044 78.2411C146.613 77.9196 147.387 77.9196 147.956 78.2411L157.044 83.5466C157.636 83.8911 158 84.5341 158 85.2232V95.8112C158 96.5002 157.636 97.1432 157.044 97.4877L147.956 102.793C147.66 102.931 147.319 103 147 103V103ZM149.801 95.7192C145.816 95.7192 144.996 93.8819 144.996 92.3201C144.996 92.1823 145.11 92.0445 145.269 92.0445H146.453C146.59 92.0445 146.704 92.1364 146.704 92.2742C146.886 93.4914 147.41 94.0886 149.824 94.0886C151.737 94.0886 152.557 93.6522 152.557 92.6187C152.557 92.0215 152.329 91.5852 149.346 91.2865C146.863 91.0339 145.315 90.4827 145.315 88.4846C145.315 86.6242 146.863 85.5218 149.46 85.5218C152.375 85.5218 153.81 86.5323 153.992 88.7372C153.992 88.8061 153.969 88.875 153.923 88.9439C153.878 88.9898 153.81 89.0357 153.741 89.0357H152.557C152.443 89.0357 152.329 88.9439 152.306 88.829C152.033 87.5659 151.327 87.1525 149.46 87.1525C147.364 87.1525 147.114 87.8874 147.114 88.4386C147.114 89.1047 147.41 89.3113 150.234 89.6788C153.035 90.0462 154.356 90.5746 154.356 92.5498C154.333 94.5709 152.694 95.7192 149.801 95.7192V95.7192Z" fill="#539E43"/>
</g>
<path d="M119.877 101L119.274 100.807C119.274 100.807 119.354 97.8573 118.249 97.6501C117.526 96.8366 118.356 62.9236 121 97.5344C120.498 97.7802 120.115 98.2037 119.929 98.7165C119.829 99.4739 119.812 100.239 119.877 101V101Z" fill="url(#paint1_linear_1_2)"/>
<path d="M119.896 99C121.453 97.8209 122.646 96.2216 123.335 94.3878C124.024 92.554 124.182 90.5611 123.789 88.6407C122.645 83.5609 119.934 81.8909 119.642 81.2533C119.39 80.8563 119.175 80.4367 119 80L119.216 94.1537C119.216 94.1537 118.769 98.4791 119.896 99Z" fill="url(#paint2_linear_1_2)"/>
<path d="M119.426 99C119.426 99 114.74 95.776 115.011 90.0727C115.037 88.3533 115.427 86.6594 116.156 85.1054C116.885 83.5514 117.935 82.1736 119.236 81.0649C119.388 80.9344 119.509 80.7708 119.59 80.5863C119.67 80.4019 119.708 80.2014 119.701 80C119.993 80.6341 119.945 89.4679 119.976 90.5011C120.094 94.5201 119.755 98.2414 119.426 99V99Z" fill="url(#paint3_linear_1_2)"/>
<g clip-path="url(#clip2_1_2)">
<path d="M85 98L85.1446 97.79L91.9856 84.326L92 84.1834L88.9845 78.308C88.7317 77.8158 88.0204 77.9403 87.9375 78.4912L85 98Z" fill="#FFC24A"/>
<path d="M85 98L85.1113 97.7759L92 84.2829L88.9388 78.3082C88.6844 77.815 88.0384 77.9408 87.9549 78.4929L85 98Z" fill="#FFA712"/>
<g filter="url(#filter0_i_1_2)">
<path d="M85 98L85.1113 97.7759L92 84.2829L88.9388 78.3082C88.6844 77.815 88.0384 77.9408 87.9549 78.4929L85 98Z" fill="black"/>
</g>
<path d="M94.4859 89L97 86.6645L94.4851 82.3096C94.2464 81.8974 93.5799 81.8962 93.3437 82.3096L92 84.6339V84.8318L94.4858 89H94.4859Z" fill="#F4BD62"/>
<path d="M93.9887 89L96 86.6676L93.9887 82.331C93.7977 81.9193 93.3337 81.8762 93.1447 82.289L92.0333 84.7136L92 84.8376L93.9887 89V89Z" fill="#FFA50E"/>
<g filter="url(#filter1_i_1_2)">
<path d="M93.9887 89L96 86.6676L93.9887 82.331C93.7977 81.9193 93.3337 81.8762 93.1447 82.289L92.0333 84.7136L92 84.8376L93.9887 89V89Z" fill="black"/>
</g>
<path d="M85 98L85.0643 97.9308L85.2982 97.8293L93.8911 88.6815L94 88.3648L91.8564 84L85 98Z" fill="#F6820C"/>
<path d="M94.8051 102.781L103 98.1338L100.66 83.4787C100.587 83.0202 100.033 82.839 99.7106 83.1677L85 98.1548L93.1479 102.781C93.4012 102.924 93.6864 103 93.9765 103C94.2665 103 94.5518 102.925 94.8051 102.781" fill="#FDE068"/>
<path d="M103 98.1353L100.656 83.4847C100.583 83.0263 100.119 82.8367 99.7953 83.1654L85 98.1671L93.1327 102.781C93.3863 102.924 93.672 103 93.9625 103C94.253 103 94.5387 102.925 94.7924 102.781L103 98.1353L103 98.1353Z" fill="#FCCA3F"/>
<path d="M94.805 102.643C94.5517 102.787 94.2664 102.863 93.9764 102.863C93.6863 102.863 93.4011 102.787 93.1479 102.643L85.0655 98.0763L85 98.1469L93.1479 102.78C93.4011 102.924 93.6864 103 93.9764 103C94.2665 103 94.5517 102.925 94.805 102.781L103 98.1258L102.98 98L94.805 102.644L94.805 102.643Z" fill="#EEAB37"/>
</g>
<path d="M41.9375 46.6172C41.9375 46.6172 41.9401 46.6172 41.9453 46.6172C40.8724 48.7839 40.2865 49.9688 40.1875 50.1719C39.151 52.2656 38.6042 53.3698 38.5469 53.4844L37.2969 56.0078C37.2604 55.9609 37.0859 55.6901 36.7734 55.1953C36.2578 54.2891 36 53.3464 36 52.3672V52.2969C36 51.3594 36.237 50.4557 36.7109 49.5859C37.3411 48.4609 38.2552 47.6354 39.4531 47.1094C39.6458 47.0312 39.862 46.9557 40.1016 46.8828C40.2786 46.8307 40.5 46.7812 40.7656 46.7344C40.9479 46.7031 41.3385 46.6641 41.9375 46.6172ZM43.1172 46.8281C43.6901 47.0104 44.1432 47.2005 44.4766 47.3984C44.6953 47.5182 44.9375 47.6797 45.2031 47.8828C45.3385 47.987 45.5365 48.1667 45.7969 48.4219C46.0677 48.724 46.2682 48.974 46.3984 49.1719C46.6068 49.4948 46.7604 49.776 46.8594 50.0156C46.9375 50.1875 47.0104 50.3724 47.0781 50.5703C46.6198 50.7214 46.349 50.8099 46.2656 50.8359C46.1771 50.5859 46.0755 50.3438 45.9609 50.1094C45.8151 49.8333 45.6146 49.5365 45.3594 49.2188C45.1302 48.9635 44.9323 48.7708 44.7656 48.6406C44.5104 48.4323 44.2943 48.2786 44.1172 48.1797C43.8984 48.0547 43.7083 47.9609 43.5469 47.8984C43.5104 47.9714 43.0729 48.862 42.2344 50.5703C41.1198 52.8203 40.5469 53.9766 40.5156 54.0391L39.2969 56.5156C40.0469 56.9323 40.8411 57.1406 41.6797 57.1406C42.6589 57.1406 43.5703 56.8568 44.4141 56.2891C44.5859 56.1745 44.7995 55.9974 45.0547 55.7578C45.2839 55.5234 45.4479 55.3359 45.5469 55.1953C45.6719 55.0286 45.7891 54.849 45.8984 54.6562C46.013 54.4479 46.112 54.2318 46.1953 54.0078C46.1953 54.0026 46.1979 54 46.2031 54C46.2656 54.0208 46.5312 54.1198 47 54.2969C46.9115 54.5417 46.8073 54.776 46.6875 55C46.5365 55.2917 46.3281 55.6042 46.0625 55.9375C45.9479 56.0677 45.8047 56.2214 45.6328 56.3984C45.3411 56.6641 45.1146 56.8516 44.9531 56.9609C44.7396 57.1068 44.5365 57.2292 44.3438 57.3281C43.4948 57.776 42.6172 58 41.7109 58H41.6406C40.7344 58 39.8568 57.7786 39.0078 57.3359C38.8099 57.2318 38.5365 57.0599 38.1875 56.8203C38.651 55.8828 39.263 54.6432 40.0234 53.1016C41.138 50.8411 41.7109 49.6823 41.7422 49.625C42.6016 47.8802 43.0599 46.9479 43.1172 46.8281ZM36.8594 52.3281C36.8594 52.9635 36.9844 53.5859 37.2344 54.1953C37.2969 54.0807 37.5 53.6693 37.8438 52.9609C37.9115 52.8359 38.4609 51.7292 39.4922 49.6406C40.1068 48.3958 40.4297 47.7396 40.4609 47.6719C40.1797 47.75 39.9323 47.8359 39.7188 47.9297C38.6094 48.4505 37.7995 49.2578 37.2891 50.3516C37.0026 50.9922 36.8594 51.651 36.8594 52.3281ZM48.5859 46.6719H49.4297C49.4349 46.6719 49.4375 46.6745 49.4375 46.6797V49.9297C49.4375 49.9297 50.4505 50.388 52.4766 51.3047L53.2812 51.6719C55.6146 50.6146 56.8125 50.0729 56.875 50.0469L57.125 49.9297V46.6797C57.125 46.6745 57.1276 46.6719 57.1328 46.6719H57.9766C57.9818 46.6719 57.9844 46.6745 57.9844 46.6797V50.4766C57.9635 50.4922 57.5365 50.6875 56.7031 51.0625L53.5078 52.5078C53.3724 52.5703 53.2969 52.6042 53.2812 52.6094C50.9948 51.5729 49.8333 51.0469 49.7969 51.0312L48.5781 50.4844V46.6797C48.5781 46.6745 48.5807 46.6719 48.5859 46.6719ZM48.5859 51.5781C50.8776 52.5156 52.0339 52.9896 52.0547 53C52.0807 53.0104 52.4896 53.1771 53.2812 53.5C55.6458 52.5312 56.8776 52.0286 56.9766 51.9922C56.9818 51.987 57.3177 51.849 57.9844 51.5781V51.5859V57.9922C57.9844 57.9974 57.9818 58 57.9766 58H57.1328C57.1276 58 57.125 57.9974 57.125 57.9922V52.8516C54.8229 53.7891 53.6693 54.2604 53.6641 54.2656C53.6224 54.2812 53.4948 54.3333 53.2812 54.4219C51.1406 53.5521 50.0208 53.0938 49.9219 53.0469C49.9167 53.0469 49.7552 52.9818 49.4375 52.8516V57.9922C49.4375 57.9974 49.4349 58 49.4297 58H48.5859C48.5807 58 48.5781 57.9974 48.5781 57.9922V51.5859C48.5781 51.5807 48.5807 51.5781 48.5859 51.5781ZM65.75 46.5625H65.7578C65.7578 46.5729 66.224 47.5286 67.1562 49.4297C68.1823 51.5286 68.7057 52.599 68.7266 52.6406C68.7578 52.6979 69.263 53.7344 70.2422 55.75L71.3438 58H66.9531C66.9479 58 66.901 57.9062 66.8125 57.7188C66.7812 57.6615 66.2552 56.5885 65.2344 54.5C64.2448 52.474 63.7031 51.3646 63.6094 51.1719C63.6042 51.1615 63.5833 51.1224 63.5469 51.0547C64.6198 48.8672 65.1797 47.724 65.2266 47.625C65.2266 47.625 65.3516 47.3698 65.6016 46.8594C65.7005 46.6667 65.75 46.5677 65.75 46.5625ZM65.75 48.4375C65.7188 48.5 65.2917 49.3724 64.4688 51.0547C65.6302 53.4297 66.2214 54.6406 66.2422 54.6875L67.4531 57.1562C67.4583 57.1719 67.4635 57.1797 67.4688 57.1797H70.0234V57.1719C68.8776 54.8281 68.2812 53.6068 68.2344 53.5078C67.2031 51.4036 66.6615 50.2995 66.6094 50.1953L65.75 48.4375ZM62.9219 52.3516L64.2109 54.9766C64.263 55.0807 64.7552 56.0885 65.6875 58H65.6797H60.1641H60.1562C61.1823 55.8958 61.7135 54.8099 61.75 54.7422L62.875 52.4375C62.901 52.3802 62.9167 52.3516 62.9219 52.3516ZM62.9219 54.2266L61.5156 57.1094C61.5104 57.1146 61.4974 57.138 61.4766 57.1797H64.3672C63.4089 55.2214 62.9271 54.237 62.9219 54.2266ZM69.7422 46.7031H79.1016C79.1068 46.7031 79.1094 46.7057 79.1094 46.7109V50.6016C79.1094 50.6068 79.1068 50.6094 79.1016 50.6094H78.2656C78.2604 50.6094 78.2578 50.6068 78.2578 50.6016V49.2031H74.8516V57.9922C74.8516 57.9974 74.849 58 74.8438 58H74C74 58 74 57.9974 74 57.9922V49.2031H70.5938V50.6016C70.5938 50.6068 70.5911 50.6094 70.5859 50.6094H69.7422C69.737 50.6094 69.7344 50.6068 69.7344 50.6016V46.7109C69.7344 46.7057 69.737 46.7031 69.7422 46.7031ZM70.5938 47.5547V48.3516H74V47.5547H70.5938ZM74.8516 47.5547V48.3516H78.2578V47.5547H74.8516ZM90.0469 46.5625H90.0547C90.0547 46.5729 90.5208 47.5286 91.4531 49.4297C92.4792 51.5286 93.0026 52.599 93.0234 52.6406C93.0547 52.6979 93.5599 53.7344 94.5391 55.75L95.6406 58H91.25C91.2448 58 91.1979 57.9062 91.1094 57.7188C91.0781 57.6615 90.5521 56.5885 89.5312 54.5C88.5417 52.474 88 51.3646 87.9062 51.1719C87.901 51.1615 87.8802 51.1224 87.8438 51.0547C88.9167 48.8672 89.4766 47.724 89.5234 47.625C89.5234 47.625 89.6484 47.3698 89.8984 46.8594C89.9974 46.6667 90.0469 46.5677 90.0469 46.5625ZM90.0469 48.4375C90.0156 48.5 89.5885 49.3724 88.7656 51.0547C89.9271 53.4297 90.5182 54.6406 90.5391 54.6875L91.75 57.1562C91.7552 57.1719 91.7604 57.1797 91.7656 57.1797H94.3203V57.1719C93.1745 54.8281 92.5781 53.6068 92.5312 53.5078C91.5 51.4036 90.9583 50.2995 90.9062 50.1953L90.0469 48.4375ZM87.2188 52.3516L88.5078 54.9766C88.5599 55.0807 89.0521 56.0885 89.9844 58H89.9766H84.4609H84.4531C85.4792 55.8958 86.0104 54.8099 86.0469 54.7422L87.1719 52.4375C87.1979 52.3802 87.2135 52.3516 87.2188 52.3516ZM87.2188 54.2266L85.8125 57.1094C85.8073 57.1146 85.7943 57.138 85.7734 57.1797H88.6641C87.7057 55.2214 87.224 54.237 87.2188 54.2266ZM96.4922 46.7266H101.898C102.638 46.7266 103.344 46.9375 104.016 47.3594C104.167 47.4583 104.336 47.5911 104.523 47.7578C104.737 47.9609 104.867 48.099 104.914 48.1719C105.034 48.3177 105.143 48.4714 105.242 48.6328C105.617 49.2734 105.805 49.9427 105.805 50.6406V50.6875C105.805 51.3125 105.648 51.9167 105.336 52.5C105.253 52.6562 105.143 52.8255 105.008 53.0078C104.93 53.112 104.794 53.2604 104.602 53.4531C103.846 54.151 102.953 54.5 101.922 54.5H97.3359V57.9922C97.3359 57.9974 97.3333 58 97.3281 58H96.4922C96.487 58 96.4844 57.9974 96.4844 57.9922V46.7344C96.4844 46.7292 96.487 46.7266 96.4922 46.7266ZM97.3359 47.5781V53.6484H101.922C102.766 53.6484 103.49 53.3542 104.094 52.7656C104.271 52.5729 104.404 52.4062 104.492 52.2656C104.805 51.7656 104.961 51.2318 104.961 50.6641C104.961 49.9401 104.721 49.2812 104.242 48.6875C104.086 48.5104 103.94 48.3672 103.805 48.2578C103.576 48.0859 103.375 47.9609 103.203 47.8828C102.776 47.6797 102.336 47.5781 101.883 47.5781H97.3359ZM101.148 50.0625C101.326 50.0625 101.474 50.1406 101.594 50.2969C101.661 50.3958 101.695 50.4974 101.695 50.6016V50.6172C101.695 50.8099 101.604 50.9661 101.422 51.0859C101.333 51.1328 101.245 51.1562 101.156 51.1562H101.141C100.948 51.1562 100.792 51.0677 100.672 50.8906C100.62 50.7969 100.594 50.7057 100.594 50.6172V50.6016C100.594 50.4297 100.672 50.2839 100.828 50.1641C100.927 50.0964 101.034 50.0625 101.148 50.0625ZM107.539 46.7266H112.945C113.685 46.7266 114.391 46.9375 115.062 47.3594C115.214 47.4583 115.383 47.5911 115.57 47.7578C115.784 47.9609 115.914 48.099 115.961 48.1719C116.081 48.3177 116.19 48.4714 116.289 48.6328C116.664 49.2734 116.852 49.9427 116.852 50.6406V50.6875C116.852 51.3125 116.695 51.9167 116.383 52.5C116.299 52.6562 116.19 52.8255 116.055 53.0078C115.977 53.112 115.841 53.2604 115.648 53.4531C114.893 54.151 114 54.5 112.969 54.5H108.383V57.9922C108.383 57.9974 108.38 58 108.375 58H107.539C107.534 58 107.531 57.9974 107.531 57.9922V46.7344C107.531 46.7292 107.534 46.7266 107.539 46.7266ZM108.383 47.5781V53.6484H112.969C113.812 53.6484 114.536 53.3542 115.141 52.7656C115.318 52.5729 115.451 52.4062 115.539 52.2656C115.852 51.7656 116.008 51.2318 116.008 50.6641C116.008 49.9401 115.768 49.2812 115.289 48.6875C115.133 48.5104 114.987 48.3672 114.852 48.2578C114.622 48.0859 114.422 47.9609 114.25 47.8828C113.823 47.6797 113.383 47.5781 112.93 47.5781H108.383ZM112.195 50.0625C112.372 50.0625 112.521 50.1406 112.641 50.2969C112.708 50.3958 112.742 50.4974 112.742 50.6016V50.6172C112.742 50.8099 112.651 50.9661 112.469 51.0859C112.38 51.1328 112.292 51.1562 112.203 51.1562H112.188C111.995 51.1562 111.839 51.0677 111.719 50.8906C111.667 50.7969 111.641 50.7057 111.641 50.6172V50.6016C111.641 50.4297 111.719 50.2839 111.875 50.1641C111.974 50.0964 112.081 50.0625 112.195 50.0625ZM126.586 46.7266H126.977C127.497 46.7266 127.979 46.8958 128.422 47.2344C128.583 47.375 128.706 47.5 128.789 47.6094C129.065 47.9896 129.203 48.3906 129.203 48.8125V48.8203C129.203 48.8255 129.201 48.8281 129.195 48.8281H128.352C128.346 48.8281 128.344 48.8255 128.344 48.8203V48.8047C128.344 48.5443 128.245 48.2969 128.047 48.0625C127.911 47.9219 127.812 47.8359 127.75 47.8047C127.516 47.6536 127.227 47.5781 126.883 47.5781H126.68C126.289 47.5781 125.966 47.6823 125.711 47.8906C125.612 47.9688 125.536 48.0443 125.484 48.1172C125.328 48.3307 125.25 48.5573 125.25 48.7969C125.25 49.1406 125.378 49.4479 125.633 49.7188C125.784 49.8646 125.924 49.9661 126.055 50.0234C126.294 50.138 126.534 50.1953 126.773 50.1953H127.031C127.589 50.1953 128.065 50.263 128.461 50.3984C128.648 50.4557 128.828 50.526 129 50.6094C129.214 50.7083 129.438 50.8385 129.672 51C129.802 51.0938 129.971 51.2396 130.18 51.4375C130.409 51.6823 130.565 51.875 130.648 52.0156C130.831 52.2812 130.979 52.5885 131.094 52.9375C131.198 53.2917 131.25 53.6354 131.25 53.9688V54.1328C131.25 54.8984 131.008 55.6198 130.523 56.2969C130.435 56.4219 130.302 56.5755 130.125 56.7578C129.865 57.0026 129.669 57.1641 129.539 57.2422C129.242 57.4557 128.885 57.6328 128.469 57.7734C128 57.9245 127.539 58 127.086 58H126.648C125.852 58 125.099 57.7865 124.391 57.3594C124.198 57.2448 123.979 57.0781 123.734 56.8594C123.526 56.651 123.396 56.5078 123.344 56.4297C123.172 56.2109 123.047 56.0234 122.969 55.8672C122.688 55.3255 122.547 54.7708 122.547 54.2031V54.1797C122.547 54.1745 122.549 54.1719 122.555 54.1719H123.391C123.396 54.1719 123.398 54.1745 123.398 54.1797V54.2031C123.398 54.7656 123.581 55.3047 123.945 55.8203C124.023 55.9297 124.141 56.0625 124.297 56.2188C124.526 56.4219 124.703 56.5573 124.828 56.625C125 56.7344 125.195 56.8333 125.414 56.9219C125.799 57.0729 126.253 57.1484 126.773 57.1484H126.953C127.479 57.1484 127.932 57.0729 128.312 56.9219C128.49 56.8594 128.651 56.7865 128.797 56.7031C128.958 56.6198 129.161 56.4766 129.406 56.2734C129.562 56.1224 129.68 55.9974 129.758 55.8984C130.185 55.3464 130.398 54.7604 130.398 54.1406V53.9688C130.398 53.3906 130.206 52.8411 129.82 52.3203C129.763 52.237 129.643 52.1068 129.461 51.9297C129.148 51.6484 128.812 51.4375 128.453 51.2969C128.042 51.1354 127.604 51.0547 127.141 51.0547H126.82C126.138 51.0547 125.549 50.8177 125.055 50.3438C124.612 49.8906 124.391 49.375 124.391 48.7969C124.391 48.2865 124.581 47.8255 124.961 47.4141C125.128 47.2526 125.273 47.1354 125.398 47.0625C125.779 46.8385 126.174 46.7266 126.586 46.7266ZM126.906 53.3125C127.083 53.3125 127.232 53.3906 127.352 53.5469C127.419 53.6458 127.453 53.7474 127.453 53.8516V53.8906C127.453 54.0365 127.388 54.1693 127.258 54.2891C127.148 54.3724 127.036 54.4141 126.922 54.4141H126.883C126.716 54.4141 126.573 54.3411 126.453 54.1953C126.385 54.0911 126.352 53.9896 126.352 53.8906V53.8516C126.352 53.6953 126.417 53.5573 126.547 53.4375C126.656 53.3542 126.776 53.3125 126.906 53.3125ZM138.531 46.7188C138.531 46.724 138.112 47.5703 137.273 49.2578C137.232 49.3464 136.745 50.3333 135.812 52.2188C134.849 54.1667 134.318 55.237 134.219 55.4297C134.104 55.6797 134.005 55.8776 133.922 56.0234C133.609 55.5391 133.409 55.2188 133.32 55.0625C132.867 54.2135 132.641 53.3307 132.641 52.4141V52.3594C132.641 51.3333 132.917 50.362 133.469 49.4453C133.599 49.2266 133.779 48.9818 134.008 48.7109C134.18 48.5078 134.385 48.3021 134.625 48.0938C135.219 47.6042 135.857 47.25 136.539 47.0312C136.737 46.9635 136.997 46.901 137.32 46.8438C137.482 46.8073 137.885 46.7656 138.531 46.7188ZM139.695 46.9297C140.237 47.0964 140.667 47.2734 140.984 47.4609C141.177 47.5599 141.388 47.6953 141.617 47.8672C141.773 47.9714 141.961 48.1302 142.18 48.3438C142.456 48.6198 142.635 48.8177 142.719 48.9375C142.932 49.224 143.089 49.4609 143.188 49.6484C143.323 49.8828 143.451 50.1667 143.57 50.5C143.789 51.1146 143.898 51.7292 143.898 52.3438V52.4141C143.898 53.362 143.654 54.2734 143.164 55.1484C143.034 55.3828 142.857 55.6406 142.633 55.9219C142.367 56.2448 142.089 56.5234 141.797 56.7578C141.578 56.9297 141.385 57.0651 141.219 57.1641C140.292 57.7214 139.32 58 138.305 58H138.227C137.279 58 136.365 57.7578 135.484 57.2734C135.328 57.1797 135.104 57.0339 134.812 56.8359V56.8281C134.979 56.4896 135.56 55.3099 136.555 53.2891C137.711 50.9505 138.292 49.7734 138.297 49.7578C138.375 49.6068 138.828 48.6875 139.656 47C139.677 46.9531 139.69 46.9297 139.695 46.9297ZM133.492 52.375V52.3906C133.492 53.0156 133.615 53.6302 133.859 54.2344C133.891 54.1823 134.432 53.0938 135.484 50.9688C136.432 49.0469 136.958 47.9818 137.062 47.7734V47.7656C136.88 47.8125 136.701 47.8698 136.523 47.9375C135.445 48.3802 134.622 49.1146 134.055 50.1406C133.68 50.8542 133.492 51.599 133.492 52.375ZM140.125 47.9844C139.25 49.7552 138.547 51.1797 138.016 52.2578C136.812 54.7005 136.169 56.0052 136.086 56.1719L135.906 56.5312C136.026 56.599 136.188 56.6797 136.391 56.7734C137.005 57.0234 137.612 57.1484 138.211 57.1484H138.336C139.008 57.1484 139.685 56.987 140.367 56.6641C140.612 56.5443 140.875 56.3828 141.156 56.1797C141.297 56.0703 141.445 55.9401 141.602 55.7891C141.805 55.5859 141.948 55.4297 142.031 55.3203C142.229 55.0547 142.372 54.8359 142.461 54.6641C142.852 53.9505 143.047 53.1927 143.047 52.3906V52.3672C143.047 51.3724 142.747 50.4479 142.148 49.5938C142.044 49.4427 141.891 49.2604 141.688 49.0469C141.464 48.8229 141.281 48.6641 141.141 48.5703C140.88 48.3776 140.633 48.224 140.398 48.1094C140.268 48.0469 140.177 48.0052 140.125 47.9844ZM150.562 46.6172C150.562 46.6172 150.565 46.6172 150.57 46.6172C149.497 48.7839 148.911 49.9688 148.812 50.1719C147.776 52.2656 147.229 53.3698 147.172 53.4844L145.922 56.0078C145.885 55.9609 145.711 55.6901 145.398 55.1953C144.883 54.2891 144.625 53.3464 144.625 52.3672V52.2969C144.625 51.3594 144.862 50.4557 145.336 49.5859C145.966 48.4609 146.88 47.6354 148.078 47.1094C148.271 47.0312 148.487 46.9557 148.727 46.8828C148.904 46.8307 149.125 46.7812 149.391 46.7344C149.573 46.7031 149.964 46.6641 150.562 46.6172ZM151.742 46.8281C152.315 47.0104 152.768 47.2005 153.102 47.3984C153.32 47.5182 153.562 47.6797 153.828 47.8828C153.964 47.987 154.161 48.1667 154.422 48.4219C154.693 48.724 154.893 48.974 155.023 49.1719C155.232 49.4948 155.385 49.776 155.484 50.0156C155.562 50.1875 155.635 50.3724 155.703 50.5703C155.245 50.7214 154.974 50.8099 154.891 50.8359C154.802 50.5859 154.701 50.3438 154.586 50.1094C154.44 49.8333 154.24 49.5365 153.984 49.2188C153.755 48.9635 153.557 48.7708 153.391 48.6406C153.135 48.4323 152.919 48.2786 152.742 48.1797C152.523 48.0547 152.333 47.9609 152.172 47.8984C152.135 47.9714 151.698 48.862 150.859 50.5703C149.745 52.8203 149.172 53.9766 149.141 54.0391L147.922 56.5156C148.672 56.9323 149.466 57.1406 150.305 57.1406C151.284 57.1406 152.195 56.8568 153.039 56.2891C153.211 56.1745 153.424 55.9974 153.68 55.7578C153.909 55.5234 154.073 55.3359 154.172 55.1953C154.297 55.0286 154.414 54.849 154.523 54.6562C154.638 54.4479 154.737 54.2318 154.82 54.0078C154.82 54.0026 154.823 54 154.828 54C154.891 54.0208 155.156 54.1198 155.625 54.2969C155.536 54.5417 155.432 54.776 155.312 55C155.161 55.2917 154.953 55.6042 154.688 55.9375C154.573 56.0677 154.43 56.2214 154.258 56.3984C153.966 56.6641 153.74 56.8516 153.578 56.9609C153.365 57.1068 153.161 57.2292 152.969 57.3281C152.12 57.776 151.242 58 150.336 58H150.266C149.359 58 148.482 57.7786 147.633 57.3359C147.435 57.2318 147.161 57.0599 146.812 56.8203C147.276 55.8828 147.888 54.6432 148.648 53.1016C149.763 50.8411 150.336 49.6823 150.367 49.625C151.227 47.8802 151.685 46.9479 151.742 46.8281ZM145.484 52.3281C145.484 52.9635 145.609 53.5859 145.859 54.1953C145.922 54.0807 146.125 53.6693 146.469 52.9609C146.536 52.8359 147.086 51.7292 148.117 49.6406C148.732 48.3958 149.055 47.7396 149.086 47.6719C148.805 47.75 148.557 47.8359 148.344 47.9297C147.234 48.4505 146.424 49.2578 145.914 50.3516C145.628 50.9922 145.484 51.651 145.484 52.3281ZM157.633 46.7266H158.477C158.482 46.7266 158.484 46.7292 158.484 46.7344V50.3438C158.49 50.3438 158.906 50.0885 159.734 49.5781V46.7344C159.734 46.7292 159.737 46.7266 159.742 46.7266H160.586C160.591 46.7266 160.594 46.7292 160.594 46.7344V49.0547C162.818 47.6901 164.01 46.9583 164.172 46.8594C164.312 46.7708 164.388 46.7266 164.398 46.7266H166.047V46.7344C166.021 46.75 165.055 47.3385 163.148 48.5C161.477 49.5208 160.625 50.0391 160.594 50.0547V54.6719L163.367 56.3594C164.768 57.2135 165.661 57.7578 166.047 57.9922V58H164.398C164.367 57.9896 164.229 57.9062 163.984 57.75C163.922 57.7135 163.06 57.1875 161.398 56.1719L160.594 55.6719V57.9922C160.594 57.9974 160.591 58 160.586 58H159.742C159.737 58 159.734 57.9974 159.734 57.9922V55.1484C159.708 55.1276 159.505 55.0026 159.125 54.7734C158.719 54.5234 158.505 54.3932 158.484 54.3828V57.9922C158.484 57.9974 158.482 58 158.477 58H157.633C157.628 58 157.625 57.9974 157.625 57.9922V53.8594C157.573 53.8177 156.779 53.3281 155.242 52.3906C155.216 52.375 155.203 52.3646 155.203 52.3594C155.286 52.3073 156.06 51.8333 157.523 50.9375C157.591 50.8958 157.625 50.8724 157.625 50.8672V46.7344C157.63 46.7292 157.633 46.7266 157.633 46.7266ZM158.484 51.3594V53.3672C158.568 53.4245 158.984 53.6823 159.734 54.1406V50.5859H159.727C158.951 51.0651 158.536 51.3229 158.484 51.3594ZM156.836 52.3594V52.3672C156.867 52.3828 157.13 52.5443 157.625 52.8516V51.875C157.13 52.1823 156.867 52.3438 156.836 52.3594ZM167.922 46.7266H177.469C177.474 46.7266 177.477 46.7292 177.477 46.7344V47.5703C177.477 47.5755 177.474 47.5781 177.469 47.5781H169.992C171.503 49.0729 172.37 49.9297 172.594 50.1484C172.594 50.1484 172.609 50.1641 172.641 50.1953H177.469C177.474 50.2005 177.477 50.2031 177.477 50.2031V51.0469C177.477 51.0521 177.474 51.0547 177.469 51.0547H172.086C171.409 51.0547 170.802 51.2917 170.266 51.7656C170.089 51.9375 169.971 52.0677 169.914 52.1562C169.56 52.6458 169.383 53.1797 169.383 53.7578V53.7656C169.383 54.5521 169.641 55.2708 170.156 55.9219C170.234 56.0156 170.344 56.1276 170.484 56.2578C171.151 56.8516 171.922 57.1484 172.797 57.1484H177.469C177.474 57.1484 177.477 57.151 177.477 57.1562V57.9922C177.477 57.9974 177.474 58 177.469 58H172.75C171.896 58 171.096 57.7474 170.352 57.2422C170.211 57.1536 170.023 56.9974 169.789 56.7734C169.544 56.5182 169.383 56.3255 169.305 56.1953C169.138 55.9714 168.992 55.7135 168.867 55.4219C168.638 54.8802 168.523 54.3255 168.523 53.7578C168.523 52.9557 168.779 52.224 169.289 51.5625C169.357 51.474 169.482 51.3385 169.664 51.1562C169.872 50.9688 170.07 50.8203 170.258 50.7109C170.456 50.5964 170.651 50.5 170.844 50.4219C170.984 50.3698 171.161 50.3203 171.375 50.2734C171.427 50.263 171.464 50.2578 171.484 50.2578C171.349 50.1224 170.698 49.4792 169.531 48.3281L167.922 46.7266ZM173.633 53.5469C173.81 53.5469 173.961 53.6276 174.086 53.7891C174.148 53.888 174.18 53.9844 174.18 54.0781V54.125C174.18 54.2656 174.115 54.3958 173.984 54.5156C173.88 54.6042 173.768 54.6484 173.648 54.6484H173.602C173.461 54.6484 173.328 54.5833 173.203 54.4531C173.12 54.349 173.078 54.237 173.078 54.1172V54.0859C173.078 53.9193 173.154 53.7734 173.305 53.6484C173.409 53.5807 173.518 53.5469 173.633 53.5469ZM179.211 46.7031H188.57C188.576 46.7031 188.578 46.7057 188.578 46.7109V50.6016C188.578 50.6068 188.576 50.6094 188.57 50.6094H187.734C187.729 50.6094 187.727 50.6068 187.727 50.6016V49.2031H184.32V57.9922C184.32 57.9974 184.318 58 184.312 58H183.469C183.469 58 183.469 57.9974 183.469 57.9922V49.2031H180.062V50.6016C180.062 50.6068 180.06 50.6094 180.055 50.6094H179.211C179.206 50.6094 179.203 50.6068 179.203 50.6016V46.7109C179.203 46.7057 179.206 46.7031 179.211 46.7031ZM180.062 47.5547V48.3516H183.469V47.5547H180.062ZM184.32 47.5547V48.3516H187.727V47.5547H184.32ZM191.898 56.9297C192.07 56.9297 192.214 57.0026 192.328 57.1484C192.396 57.2422 192.43 57.3438 192.43 57.4531V57.4609C192.43 57.6589 192.339 57.8125 192.156 57.9219C192.078 57.9688 191.997 57.9922 191.914 57.9922H191.883C191.701 57.9922 191.549 57.9036 191.43 57.7266C191.388 57.638 191.367 57.5495 191.367 57.4609V57.4531C191.367 57.2708 191.453 57.1198 191.625 57C191.714 56.9531 191.805 56.9297 191.898 56.9297ZM194.32 46.7344H197.703C197.708 46.7344 197.711 46.737 197.711 46.7422V47.5781C197.711 47.5833 197.708 47.5859 197.703 47.5859H196.438V51.8594H197.703C197.708 51.8594 197.711 51.862 197.711 51.8672V52.7109C197.711 52.7109 197.708 52.7109 197.703 52.7109H196.438V57.1484H197.703C197.708 57.1484 197.711 57.151 197.711 57.1562V57.9922C197.711 57.9974 197.708 58 197.703 58H194.32C194.315 58 194.312 57.9974 194.312 57.9922V57.1562C194.312 57.151 194.315 57.1484 194.32 57.1484H195.586V52.7109H194.32C194.315 52.7109 194.312 52.7109 194.312 52.7109V51.8672C194.312 51.862 194.315 51.8594 194.32 51.8594H195.586V47.5859H194.32C194.315 47.5859 194.312 47.5833 194.312 47.5781V46.7422C194.312 46.737 194.315 46.7344 194.32 46.7344ZM205.344 46.7188C205.344 46.724 204.924 47.5703 204.086 49.2578C204.044 49.3464 203.557 50.3333 202.625 52.2188C201.661 54.1667 201.13 55.237 201.031 55.4297C200.917 55.6797 200.818 55.8776 200.734 56.0234C200.422 55.5391 200.221 55.2188 200.133 55.0625C199.68 54.2135 199.453 53.3307 199.453 52.4141V52.3594C199.453 51.3333 199.729 50.362 200.281 49.4453C200.411 49.2266 200.591 48.9818 200.82 48.7109C200.992 48.5078 201.198 48.3021 201.438 48.0938C202.031 47.6042 202.669 47.25 203.352 47.0312C203.549 46.9635 203.81 46.901 204.133 46.8438C204.294 46.8073 204.698 46.7656 205.344 46.7188ZM206.508 46.9297C207.049 47.0964 207.479 47.2734 207.797 47.4609C207.99 47.5599 208.201 47.6953 208.43 47.8672C208.586 47.9714 208.773 48.1302 208.992 48.3438C209.268 48.6198 209.448 48.8177 209.531 48.9375C209.745 49.224 209.901 49.4609 210 49.6484C210.135 49.8828 210.263 50.1667 210.383 50.5C210.602 51.1146 210.711 51.7292 210.711 52.3438V52.4141C210.711 53.362 210.466 54.2734 209.977 55.1484C209.846 55.3828 209.669 55.6406 209.445 55.9219C209.18 56.2448 208.901 56.5234 208.609 56.7578C208.391 56.9297 208.198 57.0651 208.031 57.1641C207.104 57.7214 206.133 58 205.117 58H205.039C204.091 58 203.177 57.7578 202.297 57.2734C202.141 57.1797 201.917 57.0339 201.625 56.8359V56.8281C201.792 56.4896 202.372 55.3099 203.367 53.2891C204.523 50.9505 205.104 49.7734 205.109 49.7578C205.188 49.6068 205.641 48.6875 206.469 47C206.49 46.9531 206.503 46.9297 206.508 46.9297ZM200.305 52.375V52.3906C200.305 53.0156 200.427 53.6302 200.672 54.2344C200.703 54.1823 201.245 53.0938 202.297 50.9688C203.245 49.0469 203.771 47.9818 203.875 47.7734V47.7656C203.693 47.8125 203.513 47.8698 203.336 47.9375C202.258 48.3802 201.435 49.1146 200.867 50.1406C200.492 50.8542 200.305 51.599 200.305 52.375ZM206.938 47.9844C206.062 49.7552 205.359 51.1797 204.828 52.2578C203.625 54.7005 202.982 56.0052 202.898 56.1719L202.719 56.5312C202.839 56.599 203 56.6797 203.203 56.7734C203.818 57.0234 204.424 57.1484 205.023 57.1484H205.148C205.82 57.1484 206.497 56.987 207.18 56.6641C207.424 56.5443 207.688 56.3828 207.969 56.1797C208.109 56.0703 208.258 55.9401 208.414 55.7891C208.617 55.5859 208.76 55.4297 208.844 55.3203C209.042 55.0547 209.185 54.8359 209.273 54.6641C209.664 53.9505 209.859 53.1927 209.859 52.3906V52.3672C209.859 51.3724 209.56 50.4479 208.961 49.5938C208.857 49.4427 208.703 49.2604 208.5 49.0469C208.276 48.8229 208.094 48.6641 207.953 48.5703C207.693 48.3776 207.445 48.224 207.211 48.1094C207.081 48.0469 206.99 48.0052 206.938 47.9844Z" fill="white"/>
<path d="M58.9609 78.3788C62.0661 77.5817 65.498 78.0462 68.2366 79.7381C71.6857 81.8028 73.9374 85.7085 73.9947 89.7289C74.1207 93.7894 72.0065 97.8156 68.609 100.024C64.8277 102.57 59.5968 102.668 55.7352 100.247C51.7992 97.8959 49.5016 93.1528 50.0919 88.599C50.5673 83.7871 54.28 79.5431 58.9609 78.3789V78.3788Z" fill="#010101"/>
<path d="M58.8905 80.6616C64.8925 78.2609 72.2543 82.6933 72.8756 89.1222C73.8427 94.907 69.0364 100.786 63.1692 100.955C57.5893 101.512 52.1969 96.7864 52.0386 91.1891C51.6225 86.6572 54.6118 82.1605 58.8905 80.6616V80.6616Z" fill="white"/>
<path d="M59.0588 89.3983C61.7059 87.2693 64.2953 85.0665 67 83C65.5813 85.146 64.1223 87.2636 62.7035 89.4095C61.4867 89.4153 60.2699 89.4153 59.0588 89.3982V89.3983ZM61.2965 90.5847C62.519 90.5847 63.7359 90.5847 64.9527 90.6018C62.2884 92.7193 59.7105 94.9391 57 97C58.4187 94.854 59.8777 92.7308 61.2965 90.5847Z" fill="#010101"/>
</g>
<defs>
<filter id="filter0_i_1_2" x="85" y="78" width="7" height="20" filterUnits="userSpaceOnUse" color-interpolation-filters="sRGB">
<feFlood flood-opacity="0" result="BackgroundImageFix"/>
<feBlend mode="normal" in="SourceGraphic" in2="BackgroundImageFix" result="shape"/>
<feColorMatrix in="SourceAlpha" type="matrix" values="0 0 0 0 0 0 0 0 0 0 0 0 0 0 0 0 0 0 127 0" result="hardAlpha"/>
<feOffset/>
<feGaussianBlur stdDeviation="1.24644"/>
<feComposite in2="hardAlpha" operator="arithmetic" k2="-1" k3="1"/>
<feColorMatrix type="matrix" values="0 0 0 0 0 0 0 0 0 0 0 0 0 0 0 0 0 0 0.06 0"/>
<feBlend mode="normal" in2="shape" result="effect1_innerShadow_1_2"/>
</filter>
<filter id="filter1_i_1_2" x="92" y="81.5014" width="4.07123" height="7.49858" filterUnits="userSpaceOnUse" color-interpolation-filters="sRGB">
<feFlood flood-opacity="0" result="BackgroundImageFix"/>
<feBlend mode="normal" in="SourceGraphic" in2="BackgroundImageFix" result="shape"/>
<feColorMatrix in="SourceAlpha" type="matrix" values="0 0 0 0 0 0 0 0 0 0 0 0 0 0 0 0 0 0 127 0" result="hardAlpha"/>
<feOffset dx="0.0712251" dy="-0.641026"/>
<feGaussianBlur stdDeviation="0.249288"/>
<feComposite in2="hardAlpha" operator="arithmetic" k2="-1" k3="1"/>
<feColorMatrix type="matrix" values="0 0 0 0 0 0 0 0 0 0 0 0 0 0 0 0 0 0 0.09 0"/>
<feBlend mode="normal" in2="shape" result="effect1_innerShadow_1_2"/>
</filter>
<linearGradient id="paint0_linear_1_2" x1="0" y1="75" x2="250" y2="75" gradientUnits="userSpaceOnUse">
<stop stop-color="#FC6767"/>
<stop offset="0.9999" stop-color="#FF0651"/>
<stop offset="1" stop-color="#FB2659"/>
</linearGradient>
<linearGradient id="paint1_linear_1_2" x1="115.821" y1="90.3295" x2="122.706" y2="92.7484" gradientUnits="userSpaceOnUse">
<stop offset="0.231" stop-color="#999875"/>
<stop offset="0.563" stop-color="#9B9977"/>
<stop offset="0.683" stop-color="#A09F7E"/>
<stop offset="0.768" stop-color="#A9A889"/>
<stop offset="0.837" stop-color="#B7B69A"/>
<stop offset="0.896" stop-color="#C9C7B0"/>
<stop offset="0.948" stop-color="#DEDDCB"/>
<stop offset="0.994" stop-color="#F8F6EB"/>
<stop offset="1" stop-color="#FBF9EF"/>
</linearGradient>
<linearGradient id="paint2_linear_1_2" x1="118.114" y1="79.8989" x2="121.12" y2="98.5587" gradientUnits="userSpaceOnUse">
<stop stop-color="#48A547"/>
<stop offset="1" stop-color="#3F9143"/>
</linearGradient>
<linearGradient id="paint3_linear_1_2" x1="114.608" y1="90.6372" x2="122.464" y2="88.0329" gradientUnits="userSpaceOnUse">
<stop stop-color="#41A247"/>
<stop offset="0.352" stop-color="#4BA74B"/>
<stop offset="0.956" stop-color="#67B554"/>
<stop offset="1" stop-color="#69B655"/>
</linearGradient>
<clipPath id="clip0_1_2">
<rect width="250" height="150" fill="white"/>
</clipPath>
<clipPath id="clip1_1_2">
<rect width="22" height="25" fill="white" transform="translate(136 78)"/>
</clipPath>
<clipPath id="clip2_1_2">
<rect width="18" height="25" fill="white" transform="translate(85 78)"/>
</clipPath>
</defs>
</svg>
